<svg width="478" height="178" viewBox="0 0 478 178" fill="none" xmlns="http://www.w3.org/2000/svg">
<path d="M293.014 1.75448C300.642 -4.24234 315.193 8.18201 330.115 31.4088C330.103 18.7001 332.775 9.12046 338.345 4.7408C347.814 -2.70441 363.276 6.75463 378.476 27.0265C378.066 17.0362 379.642 9.84284 383.45 6.84755C392.46 -0.237348 411.134 18.3828 428.663 50.1505C425.626 35.3286 425.455 24.0126 428.867 20.3787C434.954 13.897 450.139 34.3144 462.784 65.9818C475.428 97.6492 480.743 128.575 474.656 135.057C471.112 138.831 464.484 133.484 457.069 122.108C462.635 145.276 462.745 163.124 456.134 168.322C448.544 174.291 434.095 162.015 419.25 139.006C419.339 151.984 416.676 161.774 411.028 166.216C401.517 173.695 385.959 164.118 370.694 143.661C371.016 153.334 369.428 160.296 365.697 163.229C357.287 169.843 340.457 154.058 323.997 126.09C326.817 146.573 324.663 162.588 316.957 168.647C307.5 176.084 292.066 166.657 276.884 146.438C278.174 159.27 276.779 168.581 272.304 172.1C270.116 173.821 267.357 174.022 264.183 172.889C256.457 170.639 246.075 160.004 235.427 143.764C235.378 156.254 232.71 165.664 227.205 169.994C217.692 177.474 202.128 167.892 186.86 147.424C187.184 157.103 185.595 164.069 181.863 167.005C173.452 173.617 156.622 157.833 140.162 129.867C142.982 150.35 140.828 166.366 133.122 172.425C123.482 180.005 107.63 170.064 92.167 149.03C93.6184 162.337 92.2646 172.011 87.6843 175.613C79.8489 181.774 64.7041 168.495 49.359 144.037C51.6426 156.905 51.5046 166.561 48.4016 169.865C42.3146 176.347 27.1303 155.93 14.4862 124.262C1.84205 92.5946 -3.4735 61.6688 2.6135 55.1871C5.11458 52.5242 9.14945 54.4038 13.9149 59.7374C8.49385 36.8708 8.44506 19.2943 14.9975 14.1421C22.6843 8.09931 37.4043 20.764 52.4477 44.3389C51.3778 28.3063 53.9253 16.0726 60.4383 10.9505C71.0332 2.6192 89.1328 15.4528 105.971 40.917C102.82 23.1171 103.641 9.88496 109.179 5.52962C116.808 -0.469596 131.366 11.9628 146.292 35.2015C146.278 22.4858 148.949 12.9004 154.52 8.51885C163.815 1.20955 178.886 10.1914 193.815 29.7003C193.526 20.1481 195.12 13.2744 198.82 10.364C201.01 8.6423 203.77 8.43978 206.946 9.57417C214.797 11.8641 225.391 22.8102 236.218 39.4964C235.33 23.9871 237.905 12.1806 244.273 7.17244C254.868 -1.15876 272.967 11.6737 289.805 37.137C286.654 19.339 287.476 6.10929 293.014 1.75448Z" fill="#E2F3FF"/>
</svg>
