<svg width="834" height="161" viewBox="0 0 834 161" fill="none" xmlns="http://www.w3.org/2000/svg">
<path d="M512.151 1.36618C525.491 -4.09306 550.921 7.19657 576.986 28.3086C576.977 16.7509 581.655 8.0361 591.395 4.0488C607.956 -2.7294 634.981 5.86352 661.535 24.2881C660.827 15.2036 663.593 8.66036 670.254 5.93356C686.011 -0.515305 718.638 16.4029 749.254 45.2773C743.961 31.8031 743.672 21.5147 749.64 18.208C760.287 12.3088 786.814 30.8666 808.891 59.6572C830.966 88.4474 840.232 116.568 829.585 122.468C823.386 125.902 811.806 121.048 798.855 110.711C808.563 131.774 808.737 148.001 797.176 152.733C783.901 158.166 758.654 147.013 732.723 126.1C732.866 137.901 728.195 146.807 718.317 150.851C701.685 157.658 674.495 148.959 647.829 130.368C648.383 139.164 645.597 145.497 639.073 148.168C624.366 154.188 594.96 139.846 566.211 114.428C571.12 133.051 567.335 147.615 553.859 153.131C537.322 159.9 510.351 151.34 483.832 132.969C486.071 144.632 483.621 153.097 475.799 156.299C472.013 157.848 467.253 158.046 461.782 157.056C448.261 155.076 430.042 145.392 411.359 130.566C411.259 141.921 406.581 150.477 396.955 154.417C380.318 161.227 353.119 152.524 326.446 133.922C327.003 142.723 324.216 149.06 317.689 151.732C302.981 157.752 273.575 143.411 244.825 117.991C249.735 136.616 245.952 151.181 232.476 156.697C215.616 163.598 187.909 154.569 160.895 135.451C163.421 147.553 161.045 156.352 153.034 159.631C139.33 165.24 112.863 153.173 86.0566 130.937C90.0404 142.643 89.791 151.429 84.3622 154.437C73.7149 160.337 47.1865 141.779 25.1103 112.988C3.03443 84.198 -6.23076 56.0765 4.41595 50.1767C8.79181 47.7524 15.8498 49.4598 24.1786 54.3095C14.7182 33.5134 14.6453 17.5262 26.1064 12.8349C39.5497 7.33335 65.274 18.8391 91.5517 40.2675C89.696 25.6876 94.1625 14.5603 105.554 9.89743C124.083 2.31315 155.714 13.9724 185.128 37.1181C179.634 20.9312 181.081 8.89685 190.768 4.93161C204.111 -0.529795 229.552 10.7672 255.625 31.8906C255.612 20.3264 260.289 11.6059 270.033 7.61716C286.288 0.963764 312.625 9.12058 338.703 26.8476C338.208 18.1645 341.004 11.9133 347.475 9.26462C351.278 7.70801 356.065 7.51347 361.569 8.5195C375.301 10.5579 393.857 20.5162 412.819 35.7207C411.284 21.6229 415.803 10.8888 426.937 6.33102C445.467 -1.25298 477.097 10.4037 506.51 33.5478C501.018 17.3633 502.466 5.33079 512.151 1.36618Z" fill="#E2F3FF"/>
</svg>
