<svg width="272" height="114" viewBox="0 0 272 114" fill="none" xmlns="http://www.w3.org/2000/svg">
<rect width="272" height="114" rx="8" fill="#F1F1F1"/>
<rect x="12" y="9" width="120" height="95" rx="4" fill="#82BADF"/>
<path d="M95.8332 72.1667C95.8332 73.3159 95.3766 74.4181 94.564 75.2308C93.7513 76.0435 92.6491 76.5 91.4998 76.5H52.4998C51.3506 76.5 50.2484 76.0435 49.4357 75.2308C48.6231 74.4181 48.1665 73.3159 48.1665 72.1667V48.3333C48.1665 47.1841 48.6231 46.0819 49.4357 45.2692C50.2484 44.4565 51.3506 44 52.4998 44H61.1665L65.4998 37.5H78.4998L82.8332 44H91.4998C92.6491 44 93.7513 44.4565 94.564 45.2692C95.3766 46.0819 95.8332 47.1841 95.8332 48.3333V72.1667Z" stroke="white" stroke-opacity="0.5" stroke-width="4.33333" stroke-linecap="round" stroke-linejoin="round"/>
<path d="M71.9998 67.8333C76.7863 67.8333 80.6665 63.9531 80.6665 59.1667C80.6665 54.3802 76.7863 50.5 71.9998 50.5C67.2134 50.5 63.3332 54.3802 63.3332 59.1667C63.3332 63.9531 67.2134 67.8333 71.9998 67.8333Z" stroke="white" stroke-opacity="0.5" stroke-width="4.33333" stroke-linecap="round" stroke-linejoin="round"/>
<rect x="146" y="9" width="107" height="24" fill="#2E5B79"/>
<rect x="146" y="41" width="90" height="7" fill="#2E5B79"/>
<rect x="146" y="54" width="90" height="7" fill="#2E5B79"/>
<rect x="146" y="68" width="90" height="7" fill="#2E5B79"/>
</svg>
