<svg width="272" height="114" viewBox="0 0 272 114" fill="none" xmlns="http://www.w3.org/2000/svg">
<rect width="272" height="114" rx="8" fill="#F1F1F1"/>
<rect x="20" y="9" width="107" height="24" fill="#2E5B79"/>
<rect x="20" y="82.3154" width="71.1579" height="13.6842" fill="#2E5B79"/>
<rect x="103.474" y="82.3154" width="71.1579" height="13.6842" fill="#2E5B79"/>
<rect x="186.947" y="82.3154" width="71.1579" height="13.6842" fill="#2E5B79"/>
<rect x="20" y="44" width="71.1579" height="34.2105" rx="5.47368" fill="#82BADF"/>
<rect x="103.474" y="44" width="71.1579" height="34.2105" rx="5.47368" fill="#82BADF"/>
<rect x="186.947" y="44" width="71.1579" height="34.2105" rx="5.47368" fill="#82BADF"/>
<path d="M64.9301 67.7192C64.9301 68.1426 64.7619 68.5487 64.4625 68.8481C64.1631 69.1475 63.757 69.3157 63.3336 69.3157H48.9651C48.5417 69.3157 48.1357 69.1475 47.8363 68.8481C47.5369 68.5487 47.3687 68.1426 47.3687 67.7192V58.9385C47.3687 58.5151 47.5369 58.109 47.8363 57.8096C48.1357 57.5102 48.5417 57.342 48.9651 57.342H52.1581L53.7546 54.9473H58.5441L60.1406 57.342H63.3336C63.757 57.342 64.1631 57.5102 64.4625 57.8096C64.7619 58.109 64.9301 58.5151 64.9301 58.9385V67.7192Z" stroke="white" stroke-opacity="0.5" stroke-width="1.59649" stroke-linecap="round" stroke-linejoin="round"/>
<path d="M56.1494 66.1227C57.9128 66.1227 59.3423 64.6932 59.3423 62.9297C59.3423 61.1663 57.9128 59.7367 56.1494 59.7367C54.3859 59.7367 52.9564 61.1663 52.9564 62.9297C52.9564 64.6932 54.3859 66.1227 56.1494 66.1227Z" stroke="white" stroke-opacity="0.5" stroke-width="1.59649" stroke-linecap="round" stroke-linejoin="round"/>
<path d="M148.404 67.7192C148.404 68.1426 148.235 68.5487 147.936 68.8481C147.637 69.1475 147.231 69.3157 146.807 69.3157H132.439C132.015 69.3157 131.609 69.1475 131.31 68.8481C131.01 68.5487 130.842 68.1426 130.842 67.7192V58.9385C130.842 58.5151 131.01 58.109 131.31 57.8096C131.609 57.5102 132.015 57.342 132.439 57.342H135.632L137.228 54.9473H142.018L143.614 57.342H146.807C147.231 57.342 147.637 57.5102 147.936 57.8096C148.235 58.109 148.404 58.5151 148.404 58.9385V67.7192Z" stroke="white" stroke-opacity="0.5" stroke-width="1.59649" stroke-linecap="round" stroke-linejoin="round"/>
<path d="M139.623 66.1227C141.386 66.1227 142.816 64.6932 142.816 62.9297C142.816 61.1663 141.386 59.7367 139.623 59.7367C137.86 59.7367 136.43 61.1663 136.43 62.9297C136.43 64.6932 137.86 66.1227 139.623 66.1227Z" stroke="white" stroke-opacity="0.5" stroke-width="1.59649" stroke-linecap="round" stroke-linejoin="round"/>
<path d="M231.877 67.7192C231.877 68.1426 231.709 68.5487 231.409 68.8481C231.11 69.1475 230.704 69.3157 230.28 69.3157H215.912C215.489 69.3157 215.082 69.1475 214.783 68.8481C214.484 68.5487 214.315 68.1426 214.315 67.7192V58.9385C214.315 58.5151 214.484 58.109 214.783 57.8096C215.082 57.5102 215.489 57.342 215.912 57.342H219.105L220.701 54.9473H225.491L227.087 57.342H230.28C230.704 57.342 231.11 57.5102 231.409 57.8096C231.709 58.109 231.877 58.5151 231.877 58.9385V67.7192Z" stroke="white" stroke-opacity="0.5" stroke-width="1.59649" stroke-linecap="round" stroke-linejoin="round"/>
<path d="M223.096 66.1227C224.86 66.1227 226.289 64.6932 226.289 62.9297C226.289 61.1663 224.86 59.7367 223.096 59.7367C221.333 59.7367 219.903 61.1663 219.903 62.9297C219.903 64.6932 221.333 66.1227 223.096 66.1227Z" stroke="white" stroke-opacity="0.5" stroke-width="1.59649" stroke-linecap="round" stroke-linejoin="round"/>
</svg>
