<svg width="272" height="114" viewBox="0 0 272 114" fill="none" xmlns="http://www.w3.org/2000/svg">
<rect width="272" height="114" rx="8" fill="#F1F1F1"/>
<path fill-rule="evenodd" clip-rule="evenodd" d="M162.143 35.3806C165.871 33.8549 172.979 37.0129 180.264 42.9138C180.261 39.6827 181.569 37.2465 184.291 36.1316C188.92 34.2372 196.474 36.6375 203.896 41.7869C203.698 39.2487 204.47 37.4203 206.331 36.658C210.736 34.855 219.857 39.5873 228.416 47.6609C226.934 43.8914 226.853 41.0126 228.522 40.0877C231.498 38.4397 238.911 43.6263 245.081 51.6726C251.251 59.719 253.841 67.5788 250.866 69.2283C249.132 70.189 245.892 68.827 242.268 65.9324C244.986 71.8245 245.04 76.3644 241.807 77.6883C238.096 79.2065 231.038 76.0866 223.789 70.24C223.83 73.5401 222.527 76.0313 219.766 77.1619C215.117 79.0641 207.516 76.6324 200.064 71.4363C200.218 73.8944 199.44 75.6643 197.617 76.4109C193.506 78.0931 185.285 74.0825 177.249 66.9763C178.623 72.1837 177.567 76.2554 173.8 77.7976C169.178 79.6892 161.64 77.2959 154.228 72.1609C154.854 75.4221 154.17 77.7891 151.984 78.6844C150.921 79.1191 149.584 79.1731 148.047 78.8924C144.269 78.3327 139.184 75.6278 133.97 71.49C133.942 74.6644 132.637 77.0565 129.946 78.158C125.296 80.0607 117.694 77.6286 110.239 72.4295C110.395 74.8895 109.616 76.6601 107.792 77.407C103.68 79.0893 95.4613 75.0782 87.4249 67.9715C88.7996 73.1796 87.7431 77.2521 83.9757 78.7947C79.2634 80.7232 71.519 78.1997 63.9689 72.8562C64.6751 76.2389 64.0113 78.6982 61.7726 79.615C57.9418 81.1827 50.543 77.8094 43.0499 71.5935C44.1641 74.8664 44.096 77.322 42.5782 78.1629C39.6021 79.811 32.1886 74.6243 26.0187 66.5779C19.8488 58.5314 17.2592 50.6724 20.2345 49.0232C21.4578 48.3456 23.4304 48.8234 25.7589 50.1795C23.1143 44.3664 23.0936 39.8981 26.297 38.5867C30.055 37.0495 37.244 40.2684 44.589 46.2586C44.0687 42.1812 45.3162 39.0683 48.5011 37.7644C53.6799 35.6449 62.5215 38.9042 70.7423 45.3728C69.2071 40.8492 69.6116 37.485 72.3185 36.3767C76.048 34.8507 83.1583 38.0099 90.4454 43.9138C90.4414 40.6811 91.7493 38.2438 94.4728 37.1287C99.0161 35.2692 106.377 37.5498 113.666 42.5047C113.527 40.0775 114.307 38.3304 116.115 37.5896C117.181 37.1535 118.523 37.0991 120.066 37.3826C123.903 37.9552 129.085 40.7371 134.381 44.9832C133.952 41.0427 135.214 38.0424 138.326 36.7683C143.505 34.649 152.345 37.9067 160.566 44.3748C159.031 39.8521 159.436 36.4889 162.143 35.3806Z" fill="#82BADF"/>
</svg>
