<svg width="272" height="114" viewBox="0 0 272 114" fill="none" xmlns="http://www.w3.org/2000/svg">
<rect width="272" height="114" rx="8" fill="#F1F1F1"/>
<rect x="12" y="9" width="120" height="95" rx="4" fill="#82BADF"/>
<path d="M95.8332 72.1667C95.8332 73.3159 95.3766 74.4181 94.564 75.2308C93.7513 76.0435 92.6491 76.5 91.4998 76.5H52.4998C51.3506 76.5 50.2484 76.0435 49.4357 75.2308C48.6231 74.4181 48.1665 73.3159 48.1665 72.1667V48.3333C48.1665 47.1841 48.6231 46.0819 49.4357 45.2692C50.2484 44.4565 51.3506 44 52.4998 44H61.1665L65.4998 37.5H78.4998L82.8332 44H91.4998C92.6491 44 93.7513 44.4565 94.564 45.2692C95.3766 46.0819 95.8332 47.1841 95.8332 48.3333V72.1667Z" stroke="white" stroke-opacity="0.5" stroke-width="4.33333" stroke-linecap="round" stroke-linejoin="round"/>
<path d="M71.9998 67.8333C76.7863 67.8333 80.6665 63.9531 80.6665 59.1667C80.6665 54.3802 76.7863 50.5 71.9998 50.5C67.2134 50.5 63.3332 54.3802 63.3332 59.1667C63.3332 63.9531 67.2134 67.8333 71.9998 67.8333Z" stroke="white" stroke-opacity="0.5" stroke-width="4.33333" stroke-linecap="round" stroke-linejoin="round"/>
<rect x="142" y="9" width="120" height="36" fill="#2E5B79"/>
<rect x="142" y="49" width="90" height="7" fill="#2E5B79"/>
<path fill-rule="evenodd" clip-rule="evenodd" d="M211.274 68.2885C212.531 67.3003 214.929 69.3494 217.388 73.1782C217.386 71.0826 217.824 69.5028 218.743 68.7808C220.303 67.5541 222.85 69.1139 225.354 72.455C225.286 70.8078 225.546 69.6215 226.174 69.1276C227.658 67.9611 230.734 71.03 233.622 76.2645C233.122 73.8217 233.093 71.9564 233.655 71.3572C234.658 70.2894 237.16 73.6527 239.243 78.8698C241.326 84.087 242.202 89.182 241.199 90.2499C240.614 90.8725 239.522 89.9863 238.297 88.1055C239.217 91.928 239.238 94.8732 238.148 95.7308C236.897 96.7137 234.517 94.6889 232.071 90.8966C232.086 93.0364 231.648 94.6517 230.717 95.3839C229.15 96.6157 226.587 95.0356 224.072 91.6648C224.125 93.2593 223.863 94.408 223.248 94.8916C221.862 95.9806 219.089 93.377 216.376 88.7666C216.842 92.1439 216.489 94.7848 215.218 95.7839C213.659 97.0095 211.116 95.4509 208.614 92.1146C208.828 94.2341 208.6 95.7722 207.862 96.3529C207.5 96.637 207.045 96.6682 206.52 96.4798C205.247 96.1058 203.537 94.3545 201.784 91.6799C201.776 93.74 201.339 95.2923 200.432 96.0061C198.864 97.2383 196.3 95.6581 193.785 92.2851C193.838 93.881 193.576 95.03 192.961 95.5138C191.575 96.6024 188.802 93.9994 186.09 89.3898C186.556 92.7667 186.202 95.408 184.932 96.407C183.343 97.6557 180.731 96.0153 178.183 92.5475C178.422 94.7423 178.201 96.3385 177.446 96.9323C176.154 97.9462 173.659 95.7576 171.131 91.7274C171.507 93.8485 171.486 95.4399 170.975 95.9845C169.972 97.0523 167.47 93.689 165.387 88.4719C163.304 83.255 162.428 78.16 163.431 77.0919C163.843 76.6533 164.508 76.9621 165.292 77.8402C164.4 74.074 164.392 71.1792 165.471 70.3302C166.738 69.3343 169.164 71.4229 171.643 75.3097C171.466 72.6661 171.884 70.6484 172.958 69.8039C174.704 68.4316 177.685 70.5476 180.46 74.7444C179.94 71.8107 180.074 69.6288 180.987 68.9107C182.244 67.9221 184.643 69.9727 187.103 73.8033C187.1 71.7066 187.539 70.1253 188.457 69.403C189.989 68.1985 192.471 69.6827 194.931 72.8996C194.882 71.3221 195.146 70.1872 195.757 69.707C196.12 69.4215 196.578 69.3895 197.106 69.5811C198.399 69.9662 200.14 71.7673 201.92 74.5098C201.773 71.9531 202.195 70.0063 203.244 69.1808C204.99 67.8086 207.973 69.9239 210.747 74.1203C210.228 71.187 210.362 69.0063 211.274 68.2885Z" fill="#82BADF"/>
</svg>
