<svg width="24" height="24" viewBox="0 0 24 24" fill="none" xmlns="http://www.w3.org/2000/svg">
<path d="M22 17.9546C22 18.4368 21.8084 18.8993 21.4675 19.2403C21.1265 19.5813 20.664 19.7728 20.1818 19.7728H3.81818C3.33597 19.7728 2.87351 19.5813 2.53253 19.2403C2.19156 18.8993 2 18.4368 2 17.9546V7.95463C2 7.47242 2.19156 7.00996 2.53253 6.66899C2.87351 6.32801 3.33597 6.13645 3.81818 6.13645H7.45455L9.27273 3.40918H14.7273L16.5455 6.13645H20.1818C20.664 6.13645 21.1265 6.32801 21.4675 6.66899C21.8084 7.00996 22 7.47242 22 7.95463V17.9546Z" stroke="#222224" stroke-width="1.81818" stroke-linecap="round" stroke-linejoin="round"/>
<path d="M12 16.1365C14.0083 16.1365 15.6364 14.5084 15.6364 12.5001C15.6364 10.4918 14.0083 8.86372 12 8.86372C9.99169 8.86372 8.36364 10.4918 8.36364 12.5001C8.36364 14.5084 9.99169 16.1365 12 16.1365Z" stroke="#222224" stroke-width="1.81818" stroke-linecap="round" stroke-linejoin="round"/>
</svg>
