<svg width="28" height="28" viewBox="0 0 28 28" fill="none" xmlns="http://www.w3.org/2000/svg">
<circle cx="14" cy="14" r="14" fill="#2E5B79"/>
<path d="M19.7488 7.59838C19.7286 7.62637 19.7188 7.6584 19.7185 7.69415C19.7182 7.72585 19.7273 7.76294 19.7461 7.80509C19.767 7.84724 19.8078 7.89378 19.8682 7.94503C19.9299 7.99696 19.9825 8.02933 20.0264 8.04181C20.0712 8.05361 20.1093 8.05631 20.1403 8.05091C20.1754 8.04484 20.2054 8.02933 20.23 8.00505L20.4212 8.16657C20.3723 8.21547 20.3143 8.2475 20.2469 8.26234C20.2189 8.26875 20.1869 8.27212 20.1511 8.27178C20.1164 8.27077 20.078 8.26369 20.0361 8.25087C19.9953 8.23907 19.9505 8.21985 19.9013 8.19321C19.854 8.16657 19.8035 8.1305 19.7498 8.08497C19.6959 8.03945 19.6514 7.99527 19.6163 7.95245C19.5829 7.90929 19.5566 7.86815 19.5371 7.82903C19.5185 7.79059 19.5057 7.75451 19.499 7.72045C19.4929 7.68505 19.4909 7.65301 19.4926 7.62435C19.4959 7.55556 19.5179 7.49317 19.558 7.43652L19.7492 7.59838H19.7488ZM20.1255 8.58336L20.3497 8.77287L19.3327 9.97602L19.0987 9.77842L19.8648 8.87167L18.1559 8.9816L17.9316 8.79209L18.9487 7.58894L19.1827 7.78654L18.4179 8.6916L20.1255 8.58336Z" fill="white"/>
<path d="M16.768 8.18106L16.4922 8.04786L17.1781 6.62958L17.4539 6.76277L16.768 8.18106Z" fill="white"/>
<path d="M14.9037 6.15696C15.019 6.17483 15.1158 6.20214 15.1947 6.23889C15.275 6.27464 15.3384 6.3178 15.3842 6.36838C15.4318 6.41795 15.4642 6.47393 15.4807 6.53597C15.4972 6.59836 15.5002 6.66445 15.4894 6.73391C15.4787 6.80371 15.4561 6.86576 15.4217 6.92005C15.3873 6.97299 15.3397 7.01649 15.2794 7.05089C15.2204 7.08427 15.1472 7.10652 15.0595 7.11765C14.9735 7.12777 14.873 7.12406 14.7577 7.10619L14.0368 6.99525L13.9434 7.60323L13.6426 7.55703L13.882 5.99982L14.9037 6.15696ZM14.7827 6.8435C14.8525 6.8543 14.9115 6.85834 14.96 6.85564C15.0086 6.8516 15.0487 6.84249 15.0801 6.82833C15.1114 6.81417 15.1347 6.79495 15.1499 6.77134C15.1667 6.74605 15.1779 6.71806 15.1826 6.6867C15.1877 6.65399 15.1856 6.62399 15.1769 6.59633C15.1698 6.56767 15.1533 6.54171 15.1276 6.51878C15.102 6.49618 15.0666 6.47595 15.0211 6.45875C14.9759 6.44021 14.9186 6.42571 14.8488 6.41492L14.1427 6.30634L14.0769 6.73526L14.783 6.8435H14.7827Z" fill="white"/>
<path d="M11.7149 6.34669L11.9995 6.27521L12.3832 7.80308L12.0861 7.87794L11.7971 6.72673L10.889 8.17839L10.6044 8.24988L10.2207 6.722L10.5181 6.64715L10.8068 7.79634L11.7155 6.34669H11.7149Z" fill="white"/>
<path d="M8.80272 8.54155C8.84487 8.51862 8.89073 8.49906 8.9403 8.48321C8.99088 8.46669 9.0418 8.45792 9.09339 8.45657C9.14498 8.45556 9.19455 8.46501 9.2421 8.4849C9.28998 8.50277 9.33213 8.53582 9.36855 8.5837C9.40058 8.62619 9.42183 8.67542 9.43161 8.73106C9.44273 8.78602 9.437 8.84537 9.41475 8.9091C9.39249 8.97283 9.35304 9.04061 9.29571 9.11311C9.23974 9.18426 9.16184 9.25777 9.06203 9.33331L8.23318 9.96186L7.28125 8.70644L8.1101 8.07823C8.19946 8.01011 8.28342 7.96122 8.36132 7.93087C8.43955 7.90052 8.51036 7.88467 8.57443 7.88299C8.63951 7.88063 8.69684 7.89243 8.74674 7.91772C8.79699 7.94099 8.83813 7.9737 8.87016 8.01618C8.90422 8.06103 8.92546 8.10689 8.93423 8.15444C8.943 8.20198 8.94266 8.24919 8.93322 8.29606C8.92411 8.34091 8.90725 8.38441 8.88297 8.42623C8.8587 8.46804 8.83104 8.50547 8.79968 8.53818L8.80238 8.54155H8.80272ZM7.67848 8.73038L7.92632 9.05714L8.51778 8.60865C8.566 8.57223 8.60377 8.53717 8.63074 8.50412C8.65705 8.46972 8.67492 8.43701 8.68402 8.40667C8.69448 8.37531 8.69684 8.34631 8.69144 8.31967C8.68503 8.29202 8.67289 8.26707 8.6557 8.24414C8.6385 8.22121 8.61759 8.20333 8.59365 8.19085C8.5687 8.17703 8.54037 8.17163 8.508 8.17433C8.47496 8.17602 8.43753 8.18614 8.39605 8.20536C8.35457 8.22424 8.3077 8.25324 8.25611 8.29235L7.67814 8.73038H7.67848ZM8.89511 9.13503C8.95817 9.08715 9.0074 9.04365 9.04247 9.00419C9.07754 8.96474 9.10182 8.92866 9.1143 8.89561C9.12711 8.86223 9.13048 8.83256 9.12509 8.80625C9.1207 8.77894 9.10924 8.75298 9.09103 8.72904C9.07383 8.70611 9.05259 8.68891 9.0273 8.67711C9.00234 8.66328 8.97233 8.65822 8.93693 8.6616C8.90152 8.66497 8.86139 8.67744 8.81621 8.69902C8.77102 8.72061 8.71943 8.75331 8.66076 8.79782L8.0693 9.24631L8.31714 9.57306L8.89511 9.13503Z" fill="white"/>
<path d="M25.502 13.7527C25.3593 13.02 23.9846 13.5127 23.5233 13.5949C23.4622 13.6077 23.3155 13.604 23.2518 13.5909C20.1795 12.9478 18.2355 12.5287 15.2826 12.411C15.2027 12.4066 15.1299 12.3881 15.0685 12.3479C14.9694 12.2886 14.9114 12.1753 14.8884 12.0664C14.7421 11.5123 14.5512 10.4707 13.9864 10.1993C13.7908 10.1055 13.5592 10.1413 13.3869 10.2731C12.9121 10.637 12.7391 11.5255 12.6015 12.0654C12.5783 12.175 12.5203 12.2876 12.4211 12.3473C12.3409 12.4019 12.2323 12.4117 12.1328 12.4157C9.24026 12.5796 7.42913 12.8419 4.40946 13.5916C4.10396 13.6708 3.82644 13.5423 3.52497 13.4776C3.06604 13.3788 2.4938 13.2311 2.17953 13.4573C1.90403 13.6556 1.96405 14.0502 2.23415 14.2012C2.51505 14.4066 2.91902 14.5394 3.25622 14.6382C3.27881 14.6467 3.31051 14.6554 3.28286 14.677C2.97297 14.8146 2.83708 15.1403 3.01343 15.4381C3.53745 16.2218 4.69204 16.0569 5.5418 15.984C5.65173 15.9712 5.58294 16.0343 5.54652 16.1098C5.36645 16.4946 5.75289 16.9333 6.15551 16.8918C6.71595 16.8958 7.38462 16.6588 7.89886 16.4838C7.94337 16.4669 7.97305 16.4723 7.969 16.5242C7.91673 16.9349 8.27619 17.0597 8.65993 17.0004C9.45439 16.8082 10.5604 16.2319 11.4149 15.8751C11.54 15.8161 11.6756 15.7318 11.8138 15.6883C11.9801 15.636 12.1564 15.7315 12.2046 15.899C12.6531 17.4573 12.1315 19.5395 11.8415 21.0671C11.8239 21.1547 11.804 21.2481 11.8209 21.3402C11.855 21.5584 12.0762 21.7094 12.2859 21.6396C12.3746 21.6123 12.4511 21.5439 12.5132 21.4761C12.7516 21.2232 12.9923 20.9342 13.2179 20.6442C13.3865 20.4274 13.5467 20.2102 13.6904 20.0082C13.7275 19.9492 13.7625 19.9533 13.7979 20.0082C14.1422 20.4928 14.5637 21.0377 14.9721 21.471C15.0692 21.5853 15.2179 21.6858 15.372 21.6494C15.5123 21.6218 15.6327 21.5088 15.6667 21.3564C15.6886 21.2663 15.6694 21.1672 15.6482 21.0799C15.4378 20.1522 15.2223 18.9764 15.1623 17.926C15.1397 17.3521 14.9876 16.1118 15.3612 15.7126C15.4465 15.6333 15.5747 15.6421 15.6819 15.6927C16.6318 16.097 17.901 16.7582 18.8206 16.9983C19.1966 17.056 19.5581 16.9518 19.522 16.5485C19.5125 16.4875 19.5277 16.4581 19.5901 16.4831C20.1107 16.6456 21.2336 17.0995 21.7256 16.7849C21.9259 16.6476 22.0439 16.3856 21.9603 16.1523C21.9529 16.1044 21.8777 16.0204 21.8885 15.9955C21.8952 15.9823 21.9124 15.9844 21.9273 15.9837C22.0456 15.9931 22.164 16.0066 22.2813 16.0164C22.9713 16.069 23.8706 16.1209 24.3592 15.5908C24.6306 15.3241 24.6279 14.8854 24.2533 14.704C24.2381 14.6949 24.2128 14.6844 24.2017 14.674C24.1923 14.6662 24.1899 14.6591 24.1953 14.6527C24.6488 14.4794 25.4898 14.3314 25.5016 13.7585V13.7521L25.502 13.7527ZM21.616 13.8091C21.5975 13.8579 21.6427 13.9311 21.6255 13.9655C21.613 13.978 21.5887 13.9696 21.5715 13.9655C21.465 13.9348 21.3763 13.9112 21.2559 13.8765C21.0778 13.8239 20.9285 13.7821 20.7511 13.7696C20.2628 13.7301 20.1222 13.9864 20.3805 14.2683C20.3849 14.2734 20.3886 14.2781 20.3923 14.2822C20.4176 14.3122 20.4142 14.3186 20.3879 14.3074C20.1488 14.2076 19.8599 14.063 19.5975 13.9925C18.8371 13.7865 18.3725 14.1203 18.7565 14.5907C18.77 14.614 18.7457 14.6005 18.7275 14.5897C18.0039 14.1139 16.9208 14.27 17.5325 15.0341C17.578 15.0904 17.5402 15.0614 17.5079 15.0375C16.6824 14.3941 15.634 14.3331 15.143 15.3733C14.7337 16.3829 14.875 17.5911 14.9808 18.8263C15.021 19.1723 15.0864 19.5328 15.1545 19.868C15.2132 20.2439 15.5376 21.3382 15.3379 21.3898C15.168 21.3898 14.7745 20.8725 14.6089 20.6648C14.4309 20.424 14.1237 20.0527 13.8994 19.6879C13.8016 19.4832 13.8745 19.2637 13.834 19.055C13.7895 18.8182 13.6499 18.6864 13.4668 18.6938C13.4405 18.6945 13.398 18.6975 13.4041 18.6655C13.4226 18.5974 13.4641 18.533 13.4884 18.4655C13.6276 18.1421 13.8101 17.4573 13.3697 17.3622C13.3403 17.3565 13.2871 17.3494 13.2854 17.3177C13.4051 17.0162 13.5329 16.4706 13.1542 16.4011C13.1043 16.3829 13.0901 16.3351 13.0891 16.2825C13.1147 15.0672 12.1783 15.1892 11.4284 15.5834C10.7772 15.8856 10.2232 16.1186 9.54409 16.4217C9.25915 16.5448 8.9361 16.6824 8.64274 16.7394C8.46166 16.767 8.24382 16.7906 8.20976 16.619C8.20133 16.5239 8.30384 16.4092 8.29474 16.3074C8.29002 16.2251 8.22089 16.1506 8.1376 16.1482C7.60516 16.2484 5.77683 17.112 5.75154 16.2997C5.74378 16.1321 5.96162 16.0619 6.03445 15.9169C6.1373 15.5962 5.66758 15.7234 5.47132 15.7389C4.77499 15.7898 3.36514 15.9756 3.18372 15.1643C3.14022 14.9822 3.39043 14.8227 3.66323 14.8031C3.70538 14.8055 3.77012 14.792 3.79406 14.822C3.85071 15.371 4.7406 14.7526 4.9645 14.6109C5.00261 14.588 4.98305 14.6511 4.97597 14.673C4.7642 15.4742 6.06413 14.6814 6.44652 14.3449C6.59826 14.2248 6.17878 14.6821 6.5642 14.7337C6.92805 14.787 7.67428 14.3523 8.03948 14.0458C8.0587 14.0299 8.08298 14.0252 8.0941 14.0485C8.21617 14.7768 9.3249 14.2548 9.8587 13.7844C9.89579 13.7645 9.90321 13.8303 9.90928 13.8603C10.0344 14.5071 11.2362 13.7662 11.4658 13.517C11.4834 13.4978 11.4904 13.4931 11.4894 13.515C11.4291 13.9038 11.8475 14.1034 12.3834 13.6812C12.527 13.5686 12.6383 13.4469 12.7519 13.3036C12.7688 13.2827 12.7863 13.2648 12.8065 13.2729C12.8268 13.284 12.8359 13.308 12.8467 13.3292C12.992 13.6526 13.1994 13.6489 13.3781 13.4358C13.6 13.1991 13.7598 12.5317 13.746 12.0961C13.746 11.716 13.7467 10.8744 13.747 10.4775C13.742 10.3878 13.8141 10.3547 13.8954 10.4242C14.0242 10.5247 14.1331 10.6734 14.207 10.8174C14.4376 11.2416 14.5256 11.597 14.643 12.1119C14.677 12.2947 14.7741 12.4643 14.933 12.5631C15.0189 12.6184 15.1167 12.6524 15.2246 12.6629C17.8329 12.8119 19.6312 13.0311 22.1343 13.6243C22.1384 13.6263 22.1448 13.6276 22.1336 13.6303C22.1222 13.6317 22.1201 13.6313 22.1107 13.632C21.8902 13.632 21.6531 13.6657 21.617 13.8053L21.616 13.8101V13.8091Z" fill="white"/>
</svg>
