<svg width="188" height="126" viewBox="0 0 188 126" fill="none" xmlns="http://www.w3.org/2000/svg">
<path d="M141.985 12.7831C141.823 13.0069 141.745 13.2632 141.742 13.5491C141.74 13.8027 141.812 14.0994 141.964 14.4366C142.131 14.7737 142.457 15.146 142.94 15.556C143.434 15.9714 143.854 16.2304 144.205 16.3302C144.564 16.4246 144.869 16.4462 145.117 16.403C145.397 16.3544 145.637 16.2304 145.834 16.0361L147.364 17.3282C146.973 17.7193 146.509 17.9756 145.969 18.0942C145.745 18.1455 145.489 18.1725 145.203 18.1698C144.925 18.1617 144.618 18.105 144.283 18.0025C143.957 17.9081 143.598 17.7544 143.204 17.5413C142.827 17.3282 142.422 17.0396 141.993 16.6754C141.562 16.3113 141.206 15.9579 140.925 15.6153C140.658 15.2701 140.448 14.941 140.291 14.6281C140.143 14.3206 140.04 14.032 139.986 13.7595C139.938 13.4763 139.922 13.22 139.935 12.9908C139.962 12.4405 140.137 11.9414 140.458 11.4883L141.988 12.7831H141.985ZM144.998 20.6622L146.792 22.1781L138.656 31.8025L136.784 30.2218L142.913 22.9685L129.243 23.8478L127.449 22.3319L135.584 12.7075L137.456 14.2882L131.338 21.5281L144.998 20.6622Z" fill="white"/>
<path d="M118.143 17.446L115.937 16.3805L121.423 5.03516L123.63 6.10062L118.143 17.446Z" fill="white"/>
<path d="M103.228 1.257C104.151 1.39997 104.925 1.61844 105.556 1.91246C106.198 2.19838 106.705 2.54368 107.072 2.94829C107.453 3.34481 107.712 3.79257 107.844 4.28889C107.976 4.78792 108 5.31661 107.914 5.87227C107.828 6.43064 107.647 6.92697 107.372 7.36125C107.097 7.78475 106.716 8.13271 106.233 8.40785C105.761 8.67489 105.176 8.85292 104.475 8.94193C103.787 9.02285 102.983 8.99319 102.06 8.85023L96.2934 7.96277L95.5462 12.8262L93.1401 12.4567L95.0553 0L103.228 1.257ZM102.26 6.74893C102.818 6.83525 103.291 6.86762 103.679 6.84604C104.067 6.81367 104.388 6.74085 104.639 6.62756C104.89 6.51427 105.076 6.3605 105.198 6.17168C105.332 5.96938 105.421 5.74549 105.459 5.49463C105.5 5.23298 105.484 4.99293 105.413 4.77174C105.357 4.54246 105.225 4.33475 105.02 4.15132C104.815 3.9706 104.531 3.80874 104.167 3.67118C103.806 3.52282 103.347 3.40685 102.789 3.32053L97.1404 2.45194L96.6144 5.88307L102.263 6.74893H102.26Z" fill="white"/>
<path d="M77.7184 2.77498L79.995 2.20312L83.0646 14.4251L80.6882 15.0239L78.3765 5.81497L71.1124 17.4273L68.8358 17.9992L65.7661 5.7772L68.1452 5.17838L70.4542 14.3712L77.7237 2.77498H77.7184Z" fill="white"/>
<path d="M54.4188 20.3329C54.756 20.1495 55.1228 19.9931 55.5193 19.8663C55.9239 19.7341 56.3312 19.664 56.7439 19.6532C57.1566 19.6451 57.5532 19.7206 57.9335 19.8798C58.3165 20.0227 58.6537 20.2871 58.945 20.6701C59.2013 21.01 59.3712 21.4038 59.4495 21.8489C59.5385 22.2885 59.4926 22.7633 59.3146 23.2731C59.1366 23.7829 58.821 24.3251 58.3624 24.9051C57.9146 25.4742 57.2915 26.0622 56.4931 26.6664L49.8628 31.6944L42.248 21.652L48.8783 16.6267C49.5931 16.0818 50.2648 15.6907 50.8879 15.4479C51.5137 15.2051 52.0801 15.0784 52.5926 15.0649C53.1132 15.046 53.5718 15.1404 53.971 15.3427C54.3729 15.5288 54.702 15.7905 54.9583 16.1304C55.2307 16.4891 55.4006 16.856 55.4708 17.2363C55.5409 17.6166 55.5382 17.9943 55.4627 18.3692C55.3898 18.728 55.255 19.0759 55.0608 19.4104C54.8665 19.7449 54.6454 20.0443 54.3945 20.306L54.4161 20.3329H54.4188ZM45.4256 21.8435L47.4082 24.4573L52.1395 20.8697C52.5252 20.5784 52.8273 20.2979 53.0431 20.0335C53.2535 19.7584 53.3965 19.4967 53.4693 19.254C53.5529 19.0031 53.5718 18.7711 53.5286 18.558C53.4774 18.3368 53.3803 18.1372 53.2427 17.9538C53.1051 17.7704 52.9379 17.6274 52.7464 17.5276C52.5468 17.417 52.3202 17.3739 52.0612 17.3954C51.7969 17.4089 51.4975 17.4899 51.1657 17.6436C50.8339 17.7947 50.459 18.0266 50.0463 18.3395L45.4229 21.8435H45.4256ZM55.1579 25.0804C55.6623 24.6973 56.0561 24.3494 56.3366 24.0338C56.6172 23.7182 56.8114 23.4296 56.9112 23.1652C57.0137 22.8982 57.0407 22.6608 56.9975 22.4504C56.9624 22.2319 56.8707 22.0242 56.7251 21.8327C56.5875 21.6493 56.4176 21.5117 56.2153 21.4173C56.0156 21.3067 55.7756 21.2662 55.4923 21.2932C55.2091 21.3202 54.8881 21.42 54.5267 21.5926C54.1652 21.7653 53.7525 22.0269 53.2832 22.3829L48.5519 25.9705L50.5345 28.5843L55.1579 25.0804Z" fill="white"/>
<path d="M188 62.0122C186.859 56.1507 175.862 60.0916 172.172 60.7498C171.683 60.8523 170.51 60.8226 170 60.7174C145.424 55.5734 129.873 52.2205 106.252 51.2791C105.613 51.2441 105.03 51.0958 104.539 50.7748C103.746 50.3 103.282 49.3937 103.099 48.5224C101.928 44.0905 100.401 35.7582 95.8833 33.5868C94.3188 32.8369 92.4657 33.1229 91.0873 34.1776C87.2894 37.0881 85.9056 44.1957 84.8051 48.5143C84.6189 49.391 84.155 50.2919 83.3619 50.7694C82.7199 51.2063 81.8514 51.2846 81.0556 51.3169C57.9172 52.6279 43.4294 54.7264 19.2741 60.7228C16.8302 61.3567 14.6103 60.329 12.1988 59.8111C8.52759 59.0208 3.95008 57.8393 1.43609 59.6492C-0.767697 61.2353 -0.287558 64.3913 1.87307 65.5997C4.12002 67.2425 7.35152 68.3052 10.0489 69.0956C10.2297 69.163 10.4832 69.2331 10.262 69.4057C7.7831 70.5063 6.69605 73.112 8.10679 75.4938C12.2986 81.7626 21.5345 80.4436 28.332 79.8609C29.2114 79.7584 28.6611 80.2628 28.3698 80.8671C26.9293 83.9448 30.0206 87.4542 33.2413 87.1224C37.7244 87.1548 43.0734 85.2585 47.1869 83.8585C47.543 83.7236 47.7804 83.7668 47.748 84.1822C47.3299 87.4676 50.2053 88.4657 53.275 87.991C59.6301 86.4534 68.4776 81.8435 75.3129 78.9897C76.3136 78.5176 77.398 77.8433 78.5039 77.4953C79.8337 77.0772 81.2445 77.8406 81.6302 79.1812C85.2178 91.6459 81.0449 108.302 78.7251 120.522C78.5848 121.223 78.4257 121.97 78.5605 122.707C78.833 124.452 80.6025 125.66 82.2803 125.102C82.9897 124.883 83.602 124.336 84.0983 123.794C86.0054 121.771 87.9314 119.459 89.7359 117.139C91.0846 115.405 92.3659 113.668 93.515 112.052C93.8117 111.58 94.0922 111.612 94.3755 112.052C97.1295 115.928 100.501 120.287 103.768 123.753C104.545 124.668 105.734 125.471 106.967 125.18C108.089 124.959 109.052 124.055 109.325 122.836C109.5 122.116 109.346 121.323 109.176 120.624C107.493 113.204 105.769 103.798 105.289 95.3954C105.108 90.8044 103.892 80.8833 106.881 77.6896C107.563 77.0557 108.588 77.1258 109.446 77.5304C117.045 80.7646 127.198 86.0542 134.553 87.9748C137.561 88.436 140.453 87.6025 140.164 84.3764C140.089 83.8882 140.21 83.6535 140.709 83.8531C144.874 85.1533 153.856 88.784 157.792 86.2673C159.394 85.1694 160.338 83.0735 159.669 81.2069C159.61 80.8239 159.008 80.1523 159.095 79.9527C159.148 79.8475 159.286 79.8636 159.405 79.8582C160.352 79.9338 161.298 80.0416 162.237 80.1199C167.756 80.5407 174.95 80.9561 178.858 76.7158C181.03 74.5821 181.008 71.0728 178.011 69.6216C177.89 69.5487 177.688 69.4651 177.599 69.3815C177.523 69.3195 177.504 69.2628 177.548 69.2115C181.176 67.8251 187.903 66.6409 187.997 62.058V62.0068L188 62.0122ZM156.915 62.4626C156.767 62.8537 157.128 63.4391 156.991 63.7142C156.891 63.8141 156.697 63.7466 156.559 63.7142C155.707 63.4688 154.997 63.2799 154.034 63.0021C152.61 62.5813 151.415 62.2468 149.996 62.147C146.09 61.8314 144.965 63.8815 147.032 66.1365C147.067 66.177 147.096 66.2147 147.126 66.2471C147.328 66.4872 147.301 66.5384 147.091 66.4494C145.179 65.651 142.867 64.4938 140.768 63.9301C134.686 62.2819 130.969 64.9524 134.041 68.7153C134.149 68.9014 133.955 68.7935 133.809 68.7072C128.02 64.9011 119.356 66.15 124.249 72.2623C124.613 72.7128 124.311 72.4808 124.052 72.2893C117.449 67.1427 109.063 66.6544 105.135 74.9759C101.861 83.052 102.991 92.7168 103.838 102.597C104.159 105.365 104.682 108.249 105.227 110.93C105.697 113.937 108.291 122.69 106.695 123.103C105.335 123.103 102.187 118.965 100.863 117.304C99.4385 115.378 96.9812 112.408 95.1874 109.489C94.4051 107.852 94.9878 106.096 94.6641 104.426C94.308 102.533 93.1913 101.478 91.7266 101.537C91.5162 101.543 91.1763 101.567 91.2249 101.311C91.3732 100.766 91.705 100.251 91.8992 99.7112C93.0133 97.1244 94.4726 91.646 90.9498 90.8853C90.7151 90.8394 90.2889 90.7828 90.2754 90.5292C91.233 88.1177 92.2553 83.7533 89.2261 83.1977C88.8269 83.052 88.7136 82.669 88.7055 82.2482C88.9105 72.5267 81.4198 73.5032 75.4207 76.6564C70.212 79.0733 65.7802 80.9372 60.3476 83.3622C58.0683 84.3467 55.4842 85.4473 53.1374 85.9032C51.6889 86.1244 49.9464 86.3132 49.6739 84.9402C49.6065 84.1795 50.4265 83.2624 50.3537 82.4478C50.3159 81.7896 49.7629 81.1935 49.0967 81.1746C44.8375 81.9757 30.2121 88.8838 30.0098 82.3857C29.9478 81.0451 31.6903 80.484 32.2729 79.3241C33.0956 76.7589 29.3381 77.7758 27.7682 77.8999C22.1981 78.3072 10.9202 79.7935 9.46899 73.3036C9.12102 71.847 11.1225 70.571 13.3047 70.4146C13.6419 70.4335 14.1598 70.3256 14.3513 70.5656C14.8045 74.957 21.9229 70.01 23.714 68.8771C24.0188 68.6936 23.8624 69.1981 23.8057 69.3734C22.1118 75.7825 32.5103 69.4409 35.5692 66.7488C36.783 65.7886 33.4274 69.4463 36.5106 69.859C39.4211 70.2852 45.3904 66.8081 48.3117 64.3562C48.4655 64.2294 48.6597 64.1917 48.7487 64.3778C49.7252 70.2042 58.5943 66.0286 62.8643 62.2657C63.161 62.1066 63.2203 62.6326 63.2689 62.8726C64.2696 68.0463 73.8832 62.1201 75.7202 60.1267C75.8604 59.9729 75.9171 59.9351 75.909 60.1105C75.4261 63.2206 78.7736 64.8174 83.0598 61.4403C84.2089 60.5393 85.0991 59.5656 86.0081 58.4192C86.143 58.252 86.2832 58.109 86.4451 58.1737C86.6069 58.2628 86.6798 58.4543 86.7661 58.6242C87.9287 61.211 89.5876 61.1814 91.0172 59.4766C92.7921 57.583 94.0707 52.2449 93.9601 48.7598C93.9601 45.7198 93.9655 38.987 93.9682 35.8122C93.9277 35.0947 94.5049 34.8303 95.155 35.386C96.1854 36.1898 97.0567 37.3794 97.6474 38.5312C99.4925 41.9245 100.196 44.7676 101.135 48.8866C101.408 50.3486 102.184 51.7053 103.455 52.4957C104.143 52.9381 104.925 53.2105 105.788 53.2941C126.653 54.4864 141.038 56.2397 161.061 60.9844C161.093 61.0006 161.145 61.0115 161.056 61.033C160.964 61.0438 160.948 61.0411 160.872 61.0465C159.108 61.0465 157.212 61.3162 156.923 62.433L156.915 62.4707V62.4626Z" fill="white"/>
</svg>
