<svg width="24" height="24" viewBox="0 0 24 24" fill="none" xmlns="http://www.w3.org/2000/svg">
<path d="M10.4549 1.73607C10.9912 0.722051 12.4916 0.7558 12.9642 1.83686L15.5694 7.80085L21.5343 10.407C22.65 10.8947 22.65 12.4766 21.5343 12.9643L15.5694 15.5695L12.9642 21.5345C12.4765 22.6501 10.8946 22.6501 10.4069 21.5345L7.80074 15.5695L1.83675 12.9643C0.721081 12.4766 0.721089 10.8947 1.83675 10.407L7.80074 7.80085L10.4069 1.83686L10.4549 1.73607ZM9.51324 8.79245C9.37246 9.11469 9.11458 9.37257 8.79234 9.51336L3.81898 11.6857L8.79234 13.858C9.07427 13.9811 9.30673 14.1938 9.45469 14.4608L9.51324 14.5789L11.6855 19.5513L13.8579 14.5789L13.9164 14.4608C14.0644 14.1938 14.2968 13.9811 14.5788 13.858L19.5511 11.6857L14.5788 9.51336C14.2565 9.37257 13.9986 9.11469 13.8579 8.79245L11.6855 3.8191L9.51324 8.79245Z" fill="black"/>
</svg>
