<svg width="861" height="193" viewBox="0 0 861 193" fill="none" xmlns="http://www.w3.org/2000/svg">
<path d="M528.394 1.62691C542.164 -4.8982 568.376 8.66821 595.225 34.0087C595.237 20.1566 600.077 9.71842 610.132 4.95308C627.225 -3.14755 655.086 7.18367 682.443 29.3007C681.73 18.4131 684.595 10.5766 691.471 7.31831C707.739 -0.390303 741.372 19.9412 772.905 54.6025C767.461 38.4337 767.18 26.0924 773.345 22.1357C784.338 15.0804 811.668 37.3582 834.389 71.8955C857.109 106.433 866.615 140.151 855.622 147.207C849.219 151.317 837.274 145.473 823.926 133.054C833.911 158.323 834.065 177.782 822.128 183.44C808.426 189.934 782.404 176.532 755.693 151.432C755.82 165.577 750.986 176.243 740.79 181.075C723.621 189.212 695.591 178.752 668.118 156.434C668.673 166.974 665.785 174.557 659.052 177.749C643.871 184.943 613.569 167.719 583.962 137.219C588.989 159.542 585.058 176.988 571.149 183.58C554.079 191.669 526.271 181.375 498.95 159.319C501.24 173.303 498.698 183.445 490.624 187.272C486.674 189.144 481.701 189.361 475.983 188.123C462.058 185.666 443.359 174.059 424.194 156.339C424.071 169.948 419.23 180.197 409.294 184.906C392.122 193.044 364.083 182.579 336.605 160.251C337.163 170.797 334.276 178.384 327.54 181.577C312.359 188.771 282.057 171.546 252.45 141.046C257.479 163.371 253.548 180.819 239.639 187.411C222.233 195.66 193.665 184.796 165.831 161.84C168.416 176.35 165.95 186.894 157.68 190.813C143.533 197.517 116.253 183.017 88.6415 156.329C92.7293 170.364 92.4558 180.893 86.8505 184.49C75.8569 191.546 48.5267 169.267 25.8065 134.729C3.08624 100.192 -6.42032 66.4736 4.57315 59.4179C9.09126 56.5186 16.3676 58.5753 24.9501 64.3994C15.2299 39.4627 15.1842 20.3017 27.0146 14.6953C40.8933 8.11912 67.413 21.9506 94.4843 47.6767C92.5942 30.1959 97.2202 16.8616 108.98 11.288C128.104 2.22545 160.704 16.2342 190.998 44.0048C185.367 24.607 186.887 10.1924 196.882 5.45503C210.654 -1.0715 236.873 12.5003 263.727 37.8496C263.736 23.9918 268.578 13.5496 278.636 8.78316C295.414 0.8322 322.564 10.6394 349.431 31.9189C348.937 21.5137 351.831 14.0285 358.51 10.8632C362.464 8.98925 367.445 8.77375 373.172 10.0166C387.322 12.5224 406.396 24.4669 425.878 42.6689C424.318 25.7667 428.997 12.9059 440.492 7.45796C459.616 -1.60455 492.214 12.4022 522.509 40.1728C516.879 20.7765 518.4 6.36377 528.394 1.62691Z" fill="#E2F3FF"/>
</svg>
