<svg width="1449" height="1445" viewBox="0 0 1449 1445" fill="none" xmlns="http://www.w3.org/2000/svg">
<path d="M923.429 1210.38C921.991 1205 923.022 1199.65 921.843 1193.62C921.11 1188.25 919.937 1182.67 918.299 1177.41C913.602 1162.22 904.948 1149.85 892.398 1153.16C888.008 1154.29 884.068 1156.55 879.705 1158.28C862.409 1165.45 847.265 1167.24 836.751 1165.81C830.278 1162.8 842.041 1154.72 839.842 1150.05C838.475 1146.59 831.485 1144.73 831.624 1140.51C832.288 1138.8 834.713 1138.29 836.593 1137.82C886.082 1129.67 905.912 1114.38 871.489 1068.22C869.998 1066.12 868.553 1064.15 867.295 1062.45C865.564 1059.62 860.608 1055.48 863.604 1053.38C865.318 1052.53 869.169 1053.43 871.386 1054.3C899.646 1064.74 909.538 1083.53 914.319 1101.28C915.52 1105.26 919.865 1105.79 923.435 1105C930.515 1103.55 937.784 1103.13 944.345 1101.32C950.477 1099.3 952.482 1102.1 951.499 1107.68C949.589 1118.64 942.688 1128.03 937.117 1133.31C935.43 1134.89 933.658 1136.49 933.883 1139.04C933.99 1141.22 935.462 1144.05 936.546 1146.24C948.443 1169.48 939.144 1192.84 929.29 1207.99C928.214 1209.83 925.26 1213.41 923.529 1210.58L923.44 1210.39L923.429 1210.38Z" fill="white" fill-opacity="0.7"/>
<path d="M529.309 231.206C530.446 236.668 529.113 241.963 529.933 248.056C530.346 253.452 531.183 259.099 532.519 264.438C536.302 279.846 544.208 292.665 556.959 290.123C561.408 289.246 565.48 287.217 569.938 285.729C587.614 279.564 602.831 278.637 613.243 280.674C619.529 284.052 607.323 291.449 609.252 296.23C610.413 299.752 617.294 302.03 616.898 306.222C616.133 307.895 613.697 308.26 611.779 308.627C561.914 313.941 541.235 328.086 572.918 376.138C574.284 378.324 575.603 380.376 576.761 382.131C578.331 385.054 583.025 389.476 579.928 391.406C578.175 392.153 574.369 391.027 572.21 390.04C544.602 377.997 535.832 358.669 532.074 340.673C531.102 336.627 526.805 335.845 523.182 336.443C516.021 337.483 508.767 337.478 502.111 338.918C495.869 340.596 494.041 337.673 495.335 332.15C497.869 321.324 505.312 312.326 511.169 307.386C512.941 305.911 514.811 304.399 514.715 301.846C514.738 299.67 513.427 296.747 512.477 294.517C501.946 270.635 512.572 247.832 523.29 233.28C524.466 231.504 527.628 228.096 529.184 231.029L529.261 231.225L529.309 231.206Z" fill="white" fill-opacity="0.7"/>
<path d="M1130.51 397.769C1129.15 398.409 1127.07 398.631 1125.4 398.855C1112.07 400.32 1096.93 408.589 1094.12 417.529C1091.84 423.656 1097.78 428.982 1101.65 433.01C1103.7 435.188 1106.2 438.008 1108.34 440.583C1117.37 451.454 1122.86 461.249 1124.6 468.78C1124.42 474.087 1116.85 470.438 1113.57 472.799C1110.97 474.21 1108.31 477.134 1106.49 478.392C1104.73 479.727 1104.15 479.52 1103.33 478.738C1100.01 475.243 1098.24 457.617 1085.91 443.416C1080.71 437.723 1074.78 431.963 1067.4 430.745C1056.82 429.411 1044.7 439.407 1036.47 448.499C1034.24 450.92 1031.86 452.787 1030.42 450.605C1029.36 449.131 1029.21 445.548 1029.39 443.257C1030.27 429.041 1036.35 418.999 1043.57 413.549C1052.02 408.139 1049.38 403.188 1044.91 395.865C1042.98 392.25 1040.96 388.579 1038.9 385.093C1036.18 380.405 1038.9 378.769 1043.11 379.52C1051.73 381.086 1060.58 385.889 1066.51 389.989C1068.41 391.281 1070.5 392.673 1072.88 392.48C1074.95 392.398 1077.14 391.115 1078.97 389.999C1092.62 381.298 1113.01 385.944 1128.3 392.573C1130.41 393.39 1133.78 396.172 1130.74 397.648L1130.5 397.756L1130.51 397.769Z" fill="white" fill-opacity="0.7"/>
<path d="M314.804 1042.16C316.208 1041.62 318.3 1041.54 319.982 1041.43C333.386 1040.89 349.07 1033.71 352.486 1024.96C355.174 1019.01 349.623 1013.27 346.048 1008.97C344.151 1006.67 341.847 1003.67 339.893 1000.96C331.621 989.435 326.894 979.452 325.606 971.656C325.99 966.439 333.582 970.584 336.922 968.452C339.579 967.212 342.478 964.498 344.36 963.363C346.202 962.154 346.768 962.394 347.539 963.242C350.613 966.962 351.145 984.687 362.477 999.703C367.27 1005.75 372.793 1011.92 380.054 1013.64C390.521 1015.72 403.311 1006.59 412.133 998.08C414.519 995.813 417.03 994.112 418.305 996.396C419.26 997.932 419.166 1001.53 418.816 1003.8C416.957 1017.93 410.203 1027.52 402.614 1032.45C393.801 1037.26 396.099 1042.39 400.065 1050C401.749 1053.74 403.496 1057.55 405.307 1061.18C407.699 1066.05 404.872 1067.47 400.738 1066.45C392.256 1064.29 383.755 1058.87 378.104 1054.36C376.291 1052.94 374.311 1051.41 371.93 1051.43C369.862 1051.38 367.581 1052.5 365.678 1053.48C351.462 1061.22 331.431 1055.17 316.638 1047.47C314.593 1046.52 311.408 1043.5 314.56 1042.26L314.792 1042.17L314.804 1042.16Z" fill="white" fill-opacity="0.7"/>
<path d="M1188.87 646.73C1191.34 645.885 1192.98 650.298 1194.01 652.265C1199.92 665.643 1202.26 680.294 1202.71 688.744C1202.78 692.33 1204.62 695.29 1207.31 697.774C1226.96 714.458 1238.53 745.042 1243.9 767.414C1244.24 768.692 1244.61 770.882 1244.08 771.752C1242.91 772.881 1240.86 769.644 1239.94 768.382C1230.86 752.747 1219.27 739.756 1209.93 732.942C1206.41 730.218 1206.77 732.488 1207.69 735.493C1211.86 749.5 1215.68 769.67 1213.06 788.401C1212.45 792.856 1209.86 796.139 1208.42 789.719C1205.76 775.038 1201.1 755.675 1192.68 742.315C1191.42 740.339 1189.93 739.601 1189.32 742.501C1188.61 746.194 1187.7 751.68 1186.47 755.748C1184.26 763.542 1181.64 767.53 1179.18 770.614C1173.62 776.452 1172.49 762.205 1169.59 760.103C1167.47 757.659 1163.05 756.595 1162.89 752.906C1163 749.277 1166.57 744.434 1167.89 740.504C1170.99 733.203 1172.84 725.507 1173.48 719.171C1175.65 695.899 1167.03 678.952 1180.98 661.73C1182.66 659.257 1184.05 656.841 1185.22 654.169C1186.42 651.547 1187.25 647.795 1188.73 646.824L1188.89 646.732L1188.87 646.73Z" fill="white" fill-opacity="0.7"/>
<path d="M1158.31 1010.94C1156.97 1009.85 1155.75 1007.82 1154.77 1006.2C1146.36 992.183 1135.77 984.666 1124.11 980.018C1122.16 979.25 1119.67 978.928 1117.98 980.116C1116.73 980.92 1115.85 982.3 1115.03 983.779C1113.1 987.288 1110.58 991.415 1108.19 994.953C1096.96 1010.97 1089.09 1017.28 1080.17 1022.13C1073.79 1023.13 1077.06 1011.26 1072.18 1009.24C1070.01 1008 1066.69 1007.52 1067.14 1004.93C1067.43 1003.5 1068.78 1001.99 1069.92 1000.87C1079.92 991.14 1091.81 976.413 1095.26 963.445C1098.11 951.576 1082.44 943.04 1073.51 937.747C1069.04 935.313 1064.4 933.18 1060.09 931.349C1057.39 930.23 1054.9 928.742 1055.38 927.137C1056.14 924.946 1059.79 923.961 1062.19 923.298C1083.61 918.099 1099.86 924.321 1108.02 933.512C1111.64 938.071 1115.52 936.424 1119.02 932.776C1122.88 929.113 1127.19 925.929 1130.95 922.305C1134.78 918.534 1137.65 920.81 1138.82 925.015C1141.31 933.511 1140.25 942.964 1138.54 949.261C1138.01 951.261 1137.43 953.375 1138.61 955.249C1139.61 957.001 1141.92 958.555 1143.75 959.818C1160.27 970.858 1163.2 991.252 1162.43 1006.8C1162.38 1008.99 1161.49 1013.26 1158.55 1011.11L1158.35 1010.95L1158.31 1010.94Z" fill="white" fill-opacity="0.7"/>
<path d="M292.905 433.297C294.189 434.451 295.32 436.509 296.227 438.171C304.039 452.535 314.309 460.494 325.757 465.617C327.694 466.465 330.163 466.892 331.89 465.778C333.171 465.036 334.119 463.686 335.005 462.236C337.084 458.823 339.773 454.794 342.302 451.352C354.193 435.824 362.326 429.833 371.449 425.369C377.875 424.638 374.105 436.364 378.894 438.592C381.01 439.917 384.299 440.524 383.743 443.123C383.402 444.528 381.985 445.988 380.804 447.058C370.388 456.373 357.889 470.573 353.899 483.409C350.54 495.137 365.842 504.346 374.558 509.996C378.911 512.608 383.467 514.945 387.7 516.946C390.342 518.177 392.775 519.778 392.23 521.353C391.373 523.512 387.693 524.352 385.263 524.907C363.647 529.216 347.664 522.3 339.892 512.78C336.462 508.062 332.532 509.562 328.867 513.066C324.873 516.563 320.418 519.558 316.495 523.038C312.503 526.641 309.742 524.257 308.753 520.009C306.608 511.416 308.081 502.012 310.064 495.787C310.681 493.807 311.343 491.724 310.249 489.787C309.318 487.994 307.066 486.351 305.304 485.012C289.254 473.297 287.176 452.78 288.607 437.284C288.748 435.095 289.819 430.859 292.661 433.133L292.869 433.306L292.905 433.297Z" fill="white" fill-opacity="0.7"/>
<path d="M739.927 295.795C737.346 291.19 741.676 286.723 745.257 283.247C753.197 275.884 763.674 272.062 771.471 270.644C772.938 270.308 774.274 269.735 775.133 268.46C776.213 266.957 776.573 264.305 776.891 262.25C780.519 237.286 799.285 219.856 818.305 210.717C822.639 208.146 830.366 207.735 829.359 214.744C828.842 217.44 827.037 219.913 825.585 222.265C819 232.708 815.95 242.862 814.539 254.027C814.008 258.418 813.717 261.724 817.731 259.548C826.855 254.436 849.937 248.259 867.363 254.471C875.23 257.935 871.089 264.705 864.554 266.108C858.609 268.143 838.936 276.316 835.955 285.982C835.901 286.566 836.595 287.348 837.262 287.656C839.62 288.779 842.616 289.112 845.238 289.929C857.601 293.299 863.448 297.473 870.085 302.415C873.426 304.64 875.833 309.477 872.584 312.807C870.542 315.175 867.477 316.366 866.711 319.205C865.802 322.184 868.26 326.719 865.578 329.512C862.65 332.682 858.15 330.774 855.021 328.933C844.467 323.304 826.323 315.036 811.802 316.073C806.569 316.5 801.442 318.351 796.122 318.829C783.506 320.159 772.291 315.446 763.067 308.277C757.514 304.483 752.623 301.822 746.815 299.794C744.446 298.918 741.597 298.009 740.073 295.997L739.903 295.793L739.927 295.795ZM819.411 217.283C819.104 216.784 817.81 217.278 816.134 218.22C808.198 222.71 802.383 227.053 796.603 233.719C780.95 250.197 784.767 274.359 778.273 276.225C770.642 277.634 763.158 278.727 755.827 283.167C752.632 285.006 747.243 288.693 746.816 291.292C746.343 294.016 750.411 294.73 753.455 296.21C755.209 296.994 756.907 297.868 758.588 298.8C763.806 301.621 769.069 305.871 774.433 308.765C799.316 321.63 809.22 298.608 850.547 319.279C852.634 319.894 858.449 324.419 859.521 321.974C860.085 319.929 859.44 315.913 861.943 314.046C863.791 312.249 866.253 310.955 866.422 308.98C866.48 307.961 865.708 307.137 864.895 306.497C859.442 302.512 853.482 298.928 842.567 296.209C836.635 294.5 824.729 294.505 828.137 285.325C833.876 272.932 848.593 265.129 858.775 260.927C859.563 260.552 861.246 259.929 860.501 259.189C846.166 255.109 826.319 261.959 819.324 266.076C816.033 268.319 810.601 269.646 808.325 265.305C807.417 263.643 807.283 261.641 807.337 259.762C807.849 248.892 810.366 235.167 817.699 221.837C818.339 220.506 819.731 218.419 819.473 217.383L819.409 217.306L819.411 217.283Z" fill="white" fill-opacity="0.7"/>
<path fill-rule="evenodd" clip-rule="evenodd" d="M634.267 1181.77C637.038 1182.25 636.777 1186 636.429 1188.26C634.456 1201.18 628.716 1215.65 618.87 1227.62C616.823 1230.29 615.967 1234.11 620.616 1233.11C639.126 1227.1 661.464 1212.71 667.777 1185.95C668.868 1180.59 670.302 1176.12 676.49 1176.45C684.12 1175.95 695.365 1173.13 703.947 1165.96C707.289 1163.29 709.901 1159.2 704.751 1156.79C690.29 1150.62 681.387 1136.73 665.366 1133.19C658.584 1131.5 650.518 1133.16 643.649 1133.72C628.106 1134.34 610.477 1124.82 597.302 1116.17C595.439 1115.05 592.229 1112.93 590.839 1115.25C589.748 1117.26 591.188 1121.35 590.179 1123.87C588.861 1127.08 583.575 1128.22 582.171 1130.94C580.751 1133.72 583.922 1136.26 585.768 1137.96C591.267 1142.73 596.601 1146.73 607.651 1150.8C613.455 1153.13 623.653 1153.9 616.445 1161.89C608.538 1170.69 595.734 1175.86 584.922 1178.58C578.039 1180.06 578.149 1183.49 584.883 1185.56C602.634 1190.66 618.875 1187.44 630.071 1182.72C631.294 1182.22 632.855 1181.63 634.08 1181.75L634.278 1181.78L634.267 1181.77Z" fill="white" fill-opacity="0.7"/>
<path d="M242.535 791.361C239.984 791.952 238.813 787.381 238.012 785.329C233.587 771.405 232.847 756.593 233.326 748.146C233.641 744.583 232.139 741.431 229.729 738.69C211.97 720.047 203.773 688.419 200.857 665.6C200.671 664.288 200.533 662.073 201.149 661.258C202.443 660.246 204.129 663.698 204.911 665.053C212.256 681.553 222.397 695.683 230.965 703.463C234.18 706.548 234.084 704.255 233.472 701.16C230.855 686.789 229.241 666.339 233.902 647.982C234.983 643.63 237.945 640.604 238.676 647.16C239.645 661.521 242.198 680.715 248.513 694.577C251.99 702.515 252.896 694.295 254.346 690.153C256.196 683.457 261.131 673.416 264.652 670.335C267.083 667.708 269.154 669.911 269.583 672.812C270.345 676.191 269.797 680.121 272 682.302C274.241 684.579 279.239 684.778 279.602 688.533C279.626 691.102 278.119 692.895 276.714 695.252C275.309 697.478 273.642 700.376 272.335 702.953C255.693 735.509 272.259 756.116 252.489 776.798C250.326 779.332 248.438 781.809 246.859 784.656C245.445 787.105 244.224 790.538 242.716 791.319L242.544 791.397L242.535 791.361Z" fill="white" fill-opacity="0.7"/>
</svg>
