<svg width="52" height="52" viewBox="0 0 52 52" fill="none" xmlns="http://www.w3.org/2000/svg">
<rect width="52" height="52" rx="8" fill="url(#paint0_linear_625_5293)"/>
<path d="M48.6618 21.6993C48.3968 20.338 45.8428 21.2533 44.9858 21.4062C44.8724 21.43 44.5999 21.4231 44.4815 21.3986C38.7738 20.204 35.1623 19.4253 29.6764 19.2067C29.5279 19.1985 29.3926 19.1641 29.2786 19.0895C29.0944 18.9793 28.9867 18.7688 28.9441 18.5664C28.6722 17.5372 28.3176 15.602 27.2683 15.0977C26.905 14.9236 26.4746 14.99 26.1545 15.2349C25.2724 15.9109 24.951 17.5616 24.6954 18.5645C24.6522 18.7681 24.5445 18.9774 24.3603 19.0883C24.2112 19.1898 24.0095 19.2079 23.8247 19.2154C18.4509 19.5199 15.0862 20.0073 9.47629 21.3999C8.90872 21.5471 8.39314 21.3084 7.83309 21.1882C6.98048 21.0046 5.91738 20.7302 5.33352 21.1506C4.82171 21.5189 4.93322 22.2519 5.43501 22.5325C5.95685 22.914 6.70734 23.1609 7.3338 23.3444C7.37577 23.3601 7.43466 23.3764 7.38329 23.4165C6.80758 23.672 6.55512 24.2772 6.88275 24.8304C7.85627 26.2863 10.0013 25.9799 11.5799 25.8446C11.7842 25.8208 11.6564 25.9379 11.5887 26.0783C11.2542 26.7931 11.9721 27.6081 12.7201 27.531C13.7613 27.5386 15.0035 27.0982 15.9589 26.773C16.0416 26.7417 16.0967 26.7517 16.0892 26.8482C15.9921 27.6112 16.6599 27.843 17.3728 27.7328C18.8487 27.3757 20.9035 26.3051 22.4909 25.6423C22.7234 25.5326 22.9752 25.376 23.232 25.2952C23.5409 25.1981 23.8685 25.3754 23.9581 25.6867C24.7913 28.5816 23.8222 32.45 23.2834 35.2878C23.2508 35.4507 23.2139 35.6242 23.2452 35.7953C23.3085 36.2006 23.7194 36.4812 24.1091 36.3516C24.2738 36.3008 24.416 36.1736 24.5313 36.0477C24.9742 35.5779 25.4215 35.041 25.8406 34.5023C26.1538 34.0995 26.4514 33.696 26.7183 33.3208C26.7872 33.2111 26.8523 33.2186 26.9181 33.3208C27.5577 34.221 28.3408 35.2333 29.0994 36.0383C29.2799 36.2507 29.5561 36.4374 29.8424 36.3697C30.103 36.3184 30.3267 36.1085 30.39 35.8253C30.4307 35.6581 30.395 35.4739 30.3555 35.3116C29.9646 33.5883 29.5643 31.4038 29.4528 29.4524C29.4108 28.3861 29.1283 26.082 29.8224 25.3403C29.9809 25.1931 30.2189 25.2094 30.4181 25.3034C32.1829 26.0545 34.5409 27.283 36.2492 27.729C36.9477 27.8361 37.6193 27.6425 37.5522 26.8933C37.5347 26.7799 37.5629 26.7254 37.6788 26.7718C38.646 27.0737 40.7321 27.9169 41.6461 27.3324C42.0183 27.0775 42.2375 26.5907 42.0822 26.1572C42.0684 26.0683 41.9287 25.9123 41.9487 25.8659C41.9612 25.8415 41.9932 25.8452 42.0208 25.844C42.2406 25.8615 42.4605 25.8866 42.6785 25.9047C43.9603 26.0025 45.631 26.099 46.5388 25.1142C47.0431 24.6186 47.0381 23.8036 46.3421 23.4666C46.3139 23.4497 46.2669 23.4302 46.2462 23.4108C46.2287 23.3964 46.2243 23.3833 46.2343 23.3714C47.0769 23.0494 48.6393 22.7743 48.6612 21.71V21.6981L48.6618 21.6993ZM41.4425 21.804C41.4081 21.8948 41.492 22.0307 41.4601 22.0946C41.4369 22.1178 41.3918 22.1022 41.3598 22.0946C41.1619 22.0376 40.9971 21.9938 40.7735 21.9292C40.4427 21.8315 40.1652 21.7538 39.8357 21.7307C38.9286 21.6574 38.6673 22.1335 39.1472 22.6572C39.1553 22.6666 39.1622 22.6754 39.1691 22.6829C39.2161 22.7386 39.2098 22.7505 39.161 22.7299C38.7168 22.5444 38.1799 22.2757 37.6926 22.1448C36.2799 21.762 35.4166 22.3822 36.1302 23.2561C36.1552 23.2993 36.1101 23.2743 36.0763 23.2542C34.7319 22.3703 32.7197 22.6603 33.8561 24.0799C33.9407 24.1845 33.8705 24.1306 33.8104 24.0861C32.2768 22.8909 30.3292 22.7775 29.4171 24.7101C28.6565 26.5857 28.919 28.8303 29.1157 31.125C29.1903 31.7678 29.3118 32.4375 29.4384 33.0602C29.5474 33.7587 30.15 35.7915 29.7792 35.8874C29.4634 35.8874 28.7323 34.9264 28.4248 34.5405C28.094 34.0932 27.5233 33.4035 27.1067 32.7256C26.925 32.3454 27.0603 31.9375 26.9852 31.5498C26.9025 31.11 26.6431 30.865 26.3029 30.8788C26.2541 30.8801 26.1751 30.8857 26.1864 30.8262C26.2209 30.6997 26.2979 30.58 26.343 30.4547C26.6018 29.8539 26.9407 28.5816 26.1225 28.4049C26.068 28.3943 25.969 28.3811 25.9659 28.3222C26.1883 27.7622 26.4257 26.7486 25.7222 26.6195C25.6295 26.5857 25.6032 26.4968 25.6013 26.399C25.6489 24.1413 23.9092 24.3681 22.516 25.1004C21.3063 25.6617 20.277 26.0946 19.0154 26.6577C18.486 26.8864 17.8859 27.142 17.3408 27.2479C17.0044 27.2992 16.5997 27.3431 16.5365 27.0242C16.5208 26.8476 16.7112 26.6346 16.6943 26.4454C16.6856 26.2925 16.5571 26.1541 16.4024 26.1497C15.4132 26.3358 12.0166 27.9401 11.9696 26.431C11.9552 26.1196 12.3599 25.9893 12.4952 25.7199C12.6863 25.1242 11.8136 25.3604 11.449 25.3892C10.1554 25.4838 7.53615 25.829 7.19911 24.3217C7.1183 23.9834 7.58313 23.6871 8.08994 23.6507C8.16824 23.6551 8.28852 23.6301 8.333 23.6858C8.43825 24.7057 10.0915 23.5568 10.5074 23.2937C10.5782 23.2511 10.5419 23.3682 10.5287 23.4089C10.1353 24.8974 12.5503 23.4246 13.2607 22.7994C13.5426 22.5764 12.7633 23.4259 13.4794 23.5217C14.1553 23.6207 15.5416 22.8132 16.2201 22.2437C16.2558 22.2143 16.3009 22.2055 16.3216 22.2487C16.5484 23.6019 18.6082 22.6321 19.5998 21.7582C19.6688 21.7213 19.6825 21.8434 19.6938 21.8992C19.9262 23.1007 22.1589 21.7244 22.5855 21.2614C22.6181 21.2257 22.6313 21.217 22.6294 21.2577C22.5173 21.98 23.2947 22.3508 24.2901 21.5665C24.557 21.3573 24.7637 21.1311 24.9748 20.8649C25.0062 20.8261 25.0387 20.7929 25.0763 20.8079C25.1139 20.8286 25.1308 20.873 25.1509 20.9125C25.4209 21.5133 25.8062 21.5064 26.1382 21.1105C26.5504 20.6707 26.8473 19.4309 26.8216 18.6216C26.8216 17.9155 26.8229 16.3519 26.8235 15.6146C26.8141 15.4479 26.9482 15.3865 27.0992 15.5156C27.3385 15.7023 27.5408 15.9785 27.678 16.246C28.1065 17.0341 28.27 17.6944 28.488 18.651C28.5513 18.9905 28.7317 19.3056 29.0268 19.4892C29.1865 19.5919 29.3682 19.6552 29.5687 19.6746C34.4143 19.9515 37.7552 20.3587 42.4054 21.4607C42.4129 21.4644 42.4248 21.4669 42.4042 21.4719C42.3829 21.4744 42.3791 21.4738 42.3616 21.4751C41.9518 21.4751 41.5114 21.5377 41.4444 21.7971L41.4425 21.8058V21.804Z" fill="white"/>
<defs>
<linearGradient id="paint0_linear_625_5293" x1="26" y1="0" x2="26" y2="52" gradientUnits="userSpaceOnUse">
<stop stop-color="#1B3F57"/>
<stop offset="1" stop-color="#3B89BD"/>
</linearGradient>
</defs>
</svg>
