<svg width="584" height="572" viewBox="0 0 584 572" fill="none" xmlns="http://www.w3.org/2000/svg">
<path d="M348.167 26.77C349.317 27.21 350.457 27.7701 351.597 28.4701C352.767 29.1701 353.787 30.01 354.677 30.99C355.557 31.98 356.207 33.0901 356.617 34.3501C357.067 35.5801 357.137 36.9501 356.807 38.4601C356.517 39.8001 355.917 41.03 354.997 42.15C354.117 43.28 352.867 44.16 351.267 44.8C349.667 45.44 347.677 45.8 345.317 45.9C342.997 46.01 340.267 45.73 337.127 45.05L311.057 39.4801L319.507 0L345.577 5.58008C348.387 6.18008 350.747 6.97999 352.637 7.98999C354.537 8.99999 356.027 10.1101 357.127 11.3301C358.257 12.5501 358.997 13.86 359.337 15.25C359.727 16.62 359.777 17.97 359.487 19.3C359.187 20.71 358.647 21.8901 357.877 22.8601C357.107 23.8301 356.187 24.6101 355.117 25.2101C354.087 25.7801 352.967 26.18 351.747 26.41C350.527 26.64 349.347 26.73 348.187 26.67L348.167 26.77ZM325.697 8.11011L323.497 18.38L342.097 22.3601C343.607 22.6901 344.917 22.8401 346.017 22.8101C347.127 22.7401 348.047 22.5501 348.797 22.2201C349.587 21.8901 350.187 21.46 350.607 20.91C351.037 20.32 351.327 19.6701 351.477 18.9401C351.627 18.2201 351.627 17.5301 351.477 16.8501C351.327 16.1401 350.957 15.49 350.367 14.92C349.787 14.3 348.957 13.75 347.897 13.26C346.837 12.76 345.487 12.34 343.867 12L325.697 8.11011ZM338.197 38.5C340.177 38.92 341.847 39.15 343.197 39.17C344.547 39.2 345.657 39.06 346.507 38.75C347.367 38.44 348.007 38.0101 348.417 37.4601C348.877 36.9201 349.187 36.27 349.347 35.51C349.497 34.79 349.487 34.09 349.287 33.41C349.137 32.7 348.737 32.02 348.077 31.39C347.417 30.76 346.507 30.1901 345.337 29.6801C344.167 29.1601 342.657 28.7101 340.817 28.3101L322.217 24.3301L320.017 34.6101L338.187 38.5H338.197ZM428.057 35.0801L434.737 38.53L416.187 74.39L409.207 70.78L423.187 43.77L381.117 56.24L374.437 52.79L392.987 16.9301L399.957 20.54L386.007 47.51L428.057 35.0801ZM483.347 72.8201C485.547 74.8401 487.227 76.8001 488.377 78.7101C489.577 80.6201 490.307 82.4401 490.567 84.1801C490.877 85.9101 490.767 87.56 490.227 89.12C489.697 90.68 488.817 92.1301 487.597 93.4601C486.377 94.7901 485.007 95.7901 483.497 96.4601C482.007 97.0901 480.377 97.3501 478.597 97.2101C476.867 97.0801 474.987 96.51 472.967 95.5C470.997 94.49 468.907 92.9701 466.707 90.9501L452.937 78.3101L442.277 89.92L436.537 84.65L463.837 54.91L483.357 72.8201H483.347ZM470.987 85.7201C472.317 86.9401 473.517 87.87 474.587 88.5C475.687 89.11 476.667 89.48 477.537 89.63C478.407 89.77 479.167 89.7 479.837 89.41C480.557 89.12 481.187 88.6701 481.737 88.0801C482.307 87.4501 482.697 86.7801 482.907 86.0701C483.167 85.3501 483.187 84.5701 482.967 83.7201C482.747 82.8701 482.277 81.93 481.557 80.92C480.857 79.88 479.847 78.75 478.517 77.53L465.027 65.15L457.507 73.3401L470.997 85.7201H470.987ZM490.017 135.98L485.407 129.63L518.077 105.91L522.687 112.26L490.017 135.98ZM560.657 148.4C559.897 148.86 559.337 149.51 558.967 150.35C558.637 151.09 558.477 152.05 558.487 153.24C558.547 154.44 559.027 155.95 559.937 157.77C560.857 159.62 561.767 160.92 562.677 161.66C563.617 162.39 564.477 162.84 565.267 163.03C566.157 163.24 567.017 163.19 567.837 162.86L570.687 168.61C569.037 169.26 567.347 169.42 565.617 169.09C564.887 168.95 564.107 168.7 563.267 168.34C562.457 167.96 561.627 167.4 560.777 166.68C559.937 165.98 559.077 165.07 558.187 163.95C557.347 162.84 556.527 161.48 555.727 159.86C554.927 158.24 554.327 156.75 553.937 155.38C553.597 154.03 553.397 152.79 553.327 151.67C553.277 150.58 553.347 149.6 553.537 148.72C553.757 147.83 554.027 147.06 554.357 146.4C555.137 144.82 556.287 143.57 557.807 142.65L560.657 148.4ZM559.487 175.4L562.837 182.14L526.677 200.1L523.187 193.06L550.427 179.53L509.117 164.73L505.767 158L541.927 140.04L545.417 147.07L518.227 160.58L559.487 175.4Z" fill="#1B3F57"/>
<path d="M34.0763 372.3C34.2663 373.51 34.3363 374.79 34.2863 376.11C34.2463 377.48 34.0263 378.79 33.6063 380.04C33.1863 381.29 32.5363 382.4 31.6463 383.38C30.7963 384.38 29.6363 385.11 28.1663 385.58C26.8663 385.98 25.4963 386.07 24.0663 385.82C22.6463 385.61 21.2663 384.96 19.9163 383.88C18.5663 382.79 17.2763 381.25 16.0263 379.24C14.7863 377.27 13.6863 374.76 12.7263 371.7L4.73633 346.27L43.2563 334.17L51.2463 359.6C52.1063 362.34 52.5663 364.79 52.6263 366.94C52.6863 369.08 52.4563 370.93 51.9363 372.49C51.4263 374.07 50.6563 375.36 49.6163 376.35C48.6163 377.35 47.4663 378.06 46.1663 378.47C44.7963 378.9 43.4963 379.02 42.2763 378.82C41.0563 378.63 39.9163 378.21 38.8663 377.58C37.8663 376.96 36.9663 376.18 36.1663 375.24C35.3663 374.29 34.7063 373.3 34.1863 372.26L34.0763 372.3ZM39.2363 343.54L29.2163 346.69L34.9163 364.84C35.3763 366.32 35.8963 367.53 36.4663 368.47C37.0663 369.4 37.6963 370.12 38.3563 370.6C39.0263 371.13 39.6963 371.44 40.3863 371.53C41.1063 371.61 41.8163 371.55 42.5263 371.32C43.2263 371.1 43.8363 370.76 44.3463 370.29C44.8863 369.81 45.2663 369.17 45.4763 368.37C45.7263 367.56 45.7963 366.57 45.7063 365.4C45.6063 364.23 45.3163 362.85 44.8163 361.27L39.2463 343.54H39.2363ZM18.9563 369.39C19.5663 371.33 20.1863 372.89 20.8363 374.08C21.4763 375.27 22.1463 376.16 22.8363 376.75C23.5263 377.35 24.2163 377.69 24.8963 377.79C25.5963 377.92 26.3163 377.86 27.0463 377.63C27.7463 377.41 28.3463 377.05 28.8463 376.54C29.3963 376.06 29.7763 375.38 29.9963 374.5C30.2163 373.62 30.2663 372.54 30.1363 371.27C30.0063 369.99 29.6563 368.46 29.0963 366.67L23.3963 348.52L13.3663 351.66L18.9363 369.39H18.9563ZM83.7863 429.15L87.8663 435.47L53.9363 457.34L49.6763 450.74L75.2463 434.26L32.5363 424.16L28.4563 417.84L62.3863 395.96L66.6463 402.56L41.1263 419.01L83.7863 429.15ZM119.686 472.41C121.906 474.41 123.606 476.35 124.776 478.25C125.996 480.14 126.746 481.95 127.026 483.69C127.356 485.42 127.256 487.07 126.746 488.64C126.226 490.21 125.366 491.66 124.156 493.01C122.946 494.35 121.596 495.36 120.086 496.04C118.606 496.7 116.976 496.97 115.196 496.85C113.466 496.74 111.586 496.19 109.546 495.2C107.556 494.21 105.456 492.71 103.236 490.72L89.3263 478.23L78.7963 489.95L72.9963 484.74L99.9763 454.71L119.686 472.41ZM107.466 485.44C108.806 486.65 110.016 487.56 111.096 488.18C112.196 488.78 113.186 489.14 114.056 489.28C114.926 489.41 115.686 489.33 116.356 489.04C117.066 488.74 117.696 488.29 118.246 487.68C118.816 487.05 119.196 486.38 119.386 485.66C119.636 484.95 119.646 484.16 119.416 483.31C119.186 482.46 118.706 481.54 117.976 480.53C117.266 479.5 116.246 478.38 114.896 477.17L101.276 464.94L93.8463 473.21L107.466 485.44ZM135.736 537.84L128.976 533.83L149.556 499.1L156.316 503.1L135.736 537.84ZM199.126 510.23C198.876 511.09 198.906 511.95 199.196 512.81C199.456 513.58 199.986 514.4 200.796 515.27C201.656 516.11 203.036 516.9 204.926 517.62C206.856 518.37 208.406 518.7 209.576 518.64C210.756 518.54 211.706 518.29 212.406 517.9C213.206 517.45 213.806 516.83 214.186 516.03L220.176 518.34C219.406 519.94 218.266 521.2 216.766 522.12C216.146 522.51 215.396 522.86 214.526 523.16C213.676 523.42 212.686 523.57 211.566 523.62C210.476 523.67 209.226 523.59 207.816 523.36C206.446 523.11 204.926 522.66 203.236 522.01C201.546 521.36 200.096 520.67 198.886 519.92C197.716 519.16 196.736 518.38 195.926 517.6C195.156 516.83 194.546 516.06 194.086 515.29C193.646 514.49 193.326 513.73 193.126 513.02C192.636 511.33 192.636 509.64 193.126 507.93L199.116 510.23H199.126ZM216.526 530.92L223.546 533.62L209.046 571.3L201.716 568.48L212.636 540.09L172.186 557.12L165.166 554.41L179.666 516.74L186.996 519.56L176.096 547.89L216.526 530.92Z" fill="#1B3F57"/>
<path d="M583.136 280.39C579.186 243.39 544.866 270.89 529.266 292.03C527.346 294.53 525.116 296.96 521.896 297.72C519.886 298.22 517.706 297.97 515.576 297.44C473.246 282.27 430.306 308.25 393.306 332.49C354.256 357.71 315.826 396.04 278.206 418.8C275.986 420.13 273.696 421.1 271.146 421.63C259.116 423.55 245.666 424.95 234.516 429.51C228.756 431.67 223.866 437.58 226.106 443.84C230.276 454.34 248.996 453.04 258.486 452.84C261.436 452.72 263.426 452.71 261.196 456.39C257.086 462.55 259.296 470.49 265.426 474.27C282.886 485.39 305.606 474.42 323.416 466.04C325.496 465.05 328.396 463.54 328.496 467.2C328.276 472.91 332.026 478.4 337.476 480.16C353.206 484.81 371.666 466.68 384.116 457.21C385.626 455.96 387.636 455.23 388.716 457.27C401.646 486.89 461.536 412.33 477.906 385.64C478.696 385.44 478.316 390.05 478.246 391.45C474.136 461.01 435.886 491.8 387.256 540.62C384.536 543.45 382.066 546.33 380.176 549.58C376.466 555.44 377.006 561.5 384.016 562.51C402.606 562.67 426.186 548.55 443.686 538.54C507.056 500.07 575.686 413.62 576.606 334.69C576.546 330.04 576.216 324.85 576.796 320.12C578.406 306.92 584.866 294.8 583.156 280.6L583.126 280.38L583.136 280.39ZM484.876 373.11C481.806 368.46 477.296 374.61 475.396 377.68C458.946 406.74 426.666 443.09 406.706 455C387.366 464.88 399.426 447.27 389.386 446.52C387.366 446.59 385.756 447.92 384.236 449.14C373.126 458.16 344.366 483.6 335.996 472.36C332.506 468.21 336.906 463.09 337.086 458.75C336.196 451.12 326.376 457.95 321.866 459.96C307.666 466.57 288.276 476.27 273.236 471.97C267.286 470.05 260.146 464.18 267.426 458.2C269.726 455.88 273.036 454.24 274.886 451.57C277.476 447.2 272.436 445.35 268.906 445.93C258.936 446.56 242.376 449.18 233.116 443.83C225.246 438.07 238.986 434.27 245.716 432.51C250.156 431.44 254.296 430.63 258.726 429.89C265.416 428.74 272.296 428.85 278.236 426.33C335.146 389.97 391.236 329.53 455.616 305.64C470.636 299.44 487.676 296.93 502.546 300.4C516.956 303.5 525.826 307.78 534.146 296.8C543.506 285.86 551.856 273.78 564.876 269.18C566.536 268.59 569.886 267.54 568.686 270.51C557.706 289.4 557.216 314.08 560.786 335.91C560.526 336.94 559.616 337.26 558.216 337.17C532.556 331.03 535.316 383.47 535.686 403.52C535.696 404.12 535.706 404.65 535.686 405.03C535.676 405.7 535.616 406 535.456 405.65C534.486 402.56 533.556 398.08 532.036 394.86C521.786 371.33 503.966 414.98 495.466 437.81C495.086 438.78 494.316 441.08 493.896 439.91C493.416 438.01 493.396 435.89 492.976 433.92C490.816 422.91 483.466 428.67 478.756 434.01C478.226 434.51 476.956 435.95 477.086 434.57C482.636 414.5 485.136 394.04 485.636 377.95C485.716 376.39 485.606 374.56 484.926 373.22L484.856 373.09L484.876 373.11Z" fill="#1B3F57"/>
<path d="M317.197 161.19C320.997 159.77 325.327 159.64 329.397 159.59C335.387 159.56 341.757 158.89 347.777 158.25C353.387 157.53 359.097 156.83 364.297 154.47C371.527 151.48 374.307 141.91 367.617 136.78C359.747 131.02 349.107 130.76 339.627 130.06C336.467 129.88 334.967 129.56 337.577 126.1C342.067 120.44 340.657 112.36 335.017 108.08C318.677 95.3102 295.017 104.02 276.467 110.66C274.307 111.44 271.267 112.67 271.517 109.03C272.297 103.38 269.117 97.5701 263.887 95.2801C248.697 89.0501 228.497 105.37 215.177 113.6C213.547 114.7 211.497 115.22 210.627 113.09C201.417 82.5802 134.057 149.74 116.227 174.55C115.667 175.31 115.207 175.84 114.907 175.93C117.927 127.03 150.107 83.8201 195.417 50.5301C204.017 44.0201 211.837 37.8501 220.457 30.4101C224.217 26.9901 227.487 23.4801 229.367 20.0101C232.007 15.7801 231.437 10.6402 226.447 8.95017C221.167 7.25017 214.497 9.18016 209.107 10.5602C117.657 36.5802 20.3367 124.15 11.2267 223.94C10.2967 240.3 -0.303333 253.45 0.00666656 270.13C-0.243333 295.04 17.9467 294.14 36.7967 280.16C41.0567 276.98 44.8467 273.95 48.4267 270.04C52.3167 265.99 56.5567 260.61 62.0767 259.22C64.4667 258.65 66.9667 259.15 69.4367 259.99C151.517 292.32 245.597 196.33 317.017 161.28L317.187 161.22L317.197 161.19ZM23.1267 281.05C-4.20334 294.16 8.39667 254.48 13.8267 240.57C15.1867 237.2 15.8567 233.98 16.0967 230.28C24.1267 129.59 124.887 35.1102 219.697 14.9802C223.977 14.5102 224.707 15.7401 221.657 19.1701C201.897 42.0901 166.597 62.2102 147.147 85.2002C144.457 88.3802 141.687 91.9202 139.087 95.4302C114.777 129.35 110.427 158.63 106.577 185.28C106.727 189.21 109.877 190.38 112.817 188.15C119.187 182.92 123.507 175.57 128.827 169.06C142.897 148.41 202.487 97.0801 204.377 115.92C204.437 117.9 204.287 120.31 205.497 122.08C206.987 124.44 210.237 124.08 212.427 122.79C224.517 115.33 239.077 104.04 253.667 100.53C259.007 99.1001 265.467 101.39 265.187 107.68C264.897 110.78 262.037 113.66 261.787 116.95C261.407 121.13 266.557 121.03 269.367 119.9C286.137 114.36 308.457 103.62 325.927 109.8C329.487 111.23 333.917 114.38 333.997 118.51C333.837 121.65 330.787 124.19 328.147 125.95C325.417 127.75 322.417 129.3 319.707 131.03C306.277 139.59 294.497 149.97 286.867 163.92C286.307 164.84 286.367 164.52 286.837 163.1C294.757 142.57 279.407 137.64 258.537 156.14C254.107 159.99 249.487 164.9 246.237 169C245.737 169.31 241.197 176.31 241.607 173.91C247.357 156.39 242.117 147.68 221.967 160.82C210.597 168.42 201.647 178.5 192.027 187.64C191.437 188.16 188.977 190.88 189.207 189.01C199.377 162.27 170.137 180.99 151.057 196.24C149.547 197.41 147.187 199.31 146.037 197.44C136.527 174.14 69.6067 243.01 53.1167 256.56C44.1267 265.33 35.2367 275.08 23.3267 280.97L23.1267 281.07V281.05Z" fill="#1B3F57"/>
</svg>
