<svg width="90" height="60" viewBox="0 0 90 60" fill="none" xmlns="http://www.w3.org/2000/svg">
<path d="M67.9716 6.12081C67.8941 6.22799 67.8567 6.35066 67.8554 6.48754C67.8541 6.60893 67.8889 6.75098 67.9613 6.91239C68.0413 7.07381 68.1976 7.25201 68.4287 7.44829C68.665 7.64715 68.8665 7.77112 69.0343 7.8189C69.2061 7.86409 69.352 7.87443 69.4708 7.85376C69.6051 7.83052 69.72 7.77112 69.8143 7.67815L70.5465 8.29668C70.3592 8.48392 70.1371 8.60659 69.8789 8.66341C69.7717 8.68794 69.649 8.70086 69.5121 8.69957C69.3791 8.69569 69.2319 8.66858 69.0718 8.61951C68.9155 8.57431 68.7438 8.50071 68.5553 8.3987C68.3745 8.29668 68.1808 8.15852 67.9755 7.98419C67.7689 7.80986 67.5984 7.64069 67.4641 7.47669C67.3363 7.31141 67.2355 7.15386 67.1606 7.00407C67.0896 6.85686 67.0406 6.71869 67.0147 6.58827C66.9915 6.45268 66.9837 6.33001 66.9902 6.22025C67.0031 5.95682 67.087 5.71792 67.2407 5.50098L67.9729 6.12081H67.9716ZM69.414 9.89274L70.2727 10.6185L66.3781 15.2259L65.4819 14.4692L68.4158 10.9968L61.8714 11.4178L61.0127 10.6921L64.9073 6.08465L65.8035 6.84136L62.8748 10.3073L69.414 9.89274Z" fill="#0F2E43"/>
<path d="M56.5578 8.35247L55.5015 7.8424L58.128 2.41113L59.1843 2.9212L56.5578 8.35247Z" fill="#0F2E43"/>
<path d="M49.4179 0.601757C49.8595 0.670197 50.2301 0.774785 50.5323 0.915538C50.8396 1.05242 51.0824 1.21772 51.258 1.41141C51.4401 1.60124 51.5641 1.81559 51.6273 2.05319C51.6906 2.29209 51.7022 2.54518 51.6609 2.8112C51.6196 3.0785 51.5331 3.3161 51.4014 3.524C51.2696 3.72674 51.0876 3.89332 50.8564 4.02503C50.6304 4.15287 50.3502 4.2381 50.0145 4.28071C49.6852 4.31945 49.3004 4.30525 48.8588 4.23681L46.0979 3.81196L45.7402 6.14021L44.5884 5.9633L45.5052 0L49.4179 0.601757ZM48.9543 3.23087C49.2216 3.27219 49.4476 3.28769 49.6335 3.27736C49.8195 3.26186 49.9732 3.227 50.0933 3.17277C50.2133 3.11853 50.3024 3.04492 50.3606 2.95453C50.4251 2.85768 50.4677 2.7505 50.4858 2.63041C50.5052 2.50515 50.4974 2.39023 50.4639 2.28434C50.4367 2.17458 50.3735 2.07515 50.2753 1.98734C50.1772 1.90082 50.0416 1.82333 49.8673 1.75748C49.6942 1.68646 49.4747 1.63094 49.2074 1.58962L46.5034 1.1738L46.2516 2.81637L48.9556 3.23087H48.9543Z" fill="#0F2E43"/>
<path d="M37.2057 1.32845L38.2956 1.05469L39.7651 6.90563L38.6274 7.19231L37.5208 2.78376L34.0433 8.34286L32.9534 8.61662L31.4839 2.76568L32.6228 2.47901L33.7282 6.87981L37.2083 1.32845H37.2057Z" fill="#0F2E43"/>
<path d="M26.0515 9.73401C26.2129 9.6462 26.3885 9.57131 26.5784 9.51062C26.7721 9.44734 26.9671 9.41376 27.1646 9.4086C27.3622 9.40472 27.552 9.44089 27.7341 9.51708C27.9175 9.58552 28.0789 9.71206 28.2183 9.89543C28.341 10.0581 28.4224 10.2467 28.4598 10.4597C28.5024 10.6702 28.4805 10.8975 28.3952 11.1415C28.31 11.3856 28.1589 11.6452 27.9394 11.9228C27.7251 12.1953 27.4268 12.4768 27.0445 12.766L23.8705 15.173L20.2251 10.3655L23.3991 7.95975C23.7413 7.6989 24.0629 7.51166 24.3612 7.39544C24.6608 7.27922 24.9319 7.21853 25.1773 7.21207C25.4265 7.20303 25.646 7.24823 25.8372 7.34508C26.0296 7.43418 26.1871 7.55944 26.3098 7.72215C26.4402 7.89389 26.5215 8.06951 26.5551 8.25158C26.5887 8.43366 26.5874 8.61444 26.5512 8.79393C26.5164 8.96567 26.4518 9.13227 26.3588 9.29239C26.2659 9.45251 26.16 9.59584 26.0399 9.7211L26.0502 9.73401H26.0515ZM21.7463 10.4571L22.6954 11.7084L24.9603 9.99098C25.145 9.85152 25.2896 9.71723 25.3929 9.59068C25.4937 9.45896 25.5621 9.3337 25.597 9.21749C25.637 9.09739 25.646 8.98635 25.6254 8.88433C25.6008 8.77844 25.5544 8.68289 25.4885 8.59508C25.4226 8.50727 25.3426 8.43882 25.2509 8.39104C25.1553 8.3381 25.0469 8.31744 24.9229 8.32777C24.7964 8.33422 24.653 8.37297 24.4942 8.44657C24.3354 8.51889 24.1559 8.62993 23.9583 8.77973L21.745 10.4571H21.7463ZM26.4053 12.0067C26.6468 11.8234 26.8353 11.6568 26.9696 11.5057C27.1039 11.3546 27.1969 11.2164 27.2447 11.0899C27.2938 10.9621 27.3067 10.8484 27.286 10.7477C27.2692 10.6431 27.2253 10.5437 27.1556 10.452C27.0897 10.3642 27.0084 10.2983 26.9115 10.2531C26.816 10.2002 26.701 10.1808 26.5655 10.1937C26.4299 10.2066 26.2762 10.2544 26.1032 10.3371C25.9301 10.4197 25.7326 10.545 25.5079 10.7154L23.2429 12.4329L24.192 13.6841L26.4053 12.0067Z" fill="#0F2E43"/>
<path d="M90 29.6873C89.4538 26.8812 84.1891 28.7678 82.4226 29.0829C82.1888 29.132 81.6271 29.1178 81.3831 29.0674C69.6179 26.6049 62.1735 24.9998 50.8654 24.5491C50.5594 24.5323 50.2805 24.4613 50.0454 24.3076C49.6658 24.0804 49.4437 23.6465 49.3559 23.2294C48.7954 21.1078 48.0646 17.1189 45.9016 16.0794C45.1526 15.7204 44.2655 15.8573 43.6056 16.3622C41.7875 17.7555 41.125 21.1581 40.5982 23.2255C40.5091 23.6452 40.287 24.0765 39.9073 24.3051C39.6 24.5143 39.1842 24.5517 38.8032 24.5672C27.7263 25.1948 20.7907 26.1994 9.22696 29.07C8.05702 29.3735 6.99427 28.8815 5.83984 28.6336C4.08236 28.2552 1.891 27.6896 0.68749 28.5561C-0.367514 29.3154 -0.137661 30.8262 0.896683 31.4047C1.97235 32.1911 3.51934 32.6999 4.81066 33.0782C4.89718 33.1105 5.01856 33.1441 4.91267 33.2267C3.72595 33.7536 3.20555 35.001 3.88091 36.1412C5.88762 39.1423 10.3091 38.5108 13.5632 38.2319C13.9842 38.1828 13.7207 38.4243 13.5813 38.7135C12.8917 40.1869 14.3716 41.8669 15.9134 41.7081C18.0596 41.7236 20.6202 40.8158 22.5895 40.1456C22.7599 40.081 22.8736 40.1017 22.8581 40.3006C22.6579 41.8734 24.0345 42.3512 25.504 42.1239C28.5463 41.3879 32.7818 39.181 36.054 37.8148C36.5331 37.5888 37.0522 37.266 37.5817 37.0994C38.2183 36.8992 38.8936 37.2647 39.0783 37.9065C40.7957 43.8736 38.7981 51.8475 37.6875 57.6972C37.6204 58.0329 37.5442 58.3906 37.6088 58.7431C37.7392 59.5786 38.5863 60.1571 39.3895 59.8898C39.7291 59.7852 40.0222 59.5231 40.2598 59.2635C41.1728 58.2951 42.0948 57.1884 42.9587 56.0779C43.6044 55.2476 44.2177 54.4159 44.7678 53.6424C44.9099 53.4165 45.0442 53.432 45.1797 53.6424C46.4982 55.4981 48.1123 57.5848 49.6761 59.2442C50.048 59.6819 50.6175 60.0667 51.2076 59.9273C51.7448 59.8214 52.2058 59.3888 52.3362 58.8051C52.4202 58.4603 52.3465 58.0807 52.2652 57.7462C51.4594 54.1938 50.6343 49.691 50.4044 45.6686C50.3179 43.4708 49.7355 38.7213 51.1663 37.1924C51.493 36.8889 51.9837 36.9225 52.3943 37.1162C56.032 38.6645 60.8925 41.1967 64.4139 42.1162C65.8537 42.337 67.238 41.9379 67.0998 40.3935C67.0637 40.1598 67.1218 40.0475 67.3607 40.143C69.3545 40.7654 73.6545 42.5035 75.5386 41.2987C76.3056 40.7732 76.7576 39.7698 76.4373 38.8762C76.4089 38.6929 76.121 38.3713 76.1623 38.2758C76.1881 38.2254 76.254 38.2332 76.3108 38.2306C76.764 38.2667 77.2173 38.3184 77.6667 38.3558C80.3087 38.5573 83.7526 38.7562 85.6237 36.7262C86.6632 35.7048 86.6529 34.0248 85.2183 33.33C85.1602 33.2952 85.0633 33.2552 85.0207 33.2151C84.9845 33.1854 84.9755 33.1583 84.9962 33.1338C86.733 32.47 89.9535 31.9031 89.9987 29.7092V29.6847L90 29.6873ZM75.1189 29.9029C75.0479 30.0901 75.2209 30.3704 75.155 30.5021C75.1073 30.5499 75.0143 30.5176 74.9484 30.5021C74.5404 30.3846 74.2008 30.2942 73.7398 30.1612C73.058 29.9597 72.4859 29.7996 71.8067 29.7518C69.9368 29.6007 69.3984 30.5821 70.3875 31.6617C70.4043 31.6811 70.4185 31.6991 70.4327 31.7146C70.5296 31.8295 70.5166 31.8541 70.4159 31.8115C69.5004 31.4292 68.3937 30.8753 67.3891 30.6054C64.4772 29.8164 62.6977 31.0948 64.1685 32.8962C64.2202 32.9853 64.1272 32.9336 64.0575 32.8923C61.2863 31.0703 57.1386 31.6681 59.4811 34.5943C59.6554 34.8099 59.5108 34.6989 59.3868 34.6072C56.2257 32.1433 52.211 31.9096 50.3308 35.8933C48.7632 39.7595 49.3042 44.3863 49.7097 49.1164C49.8634 50.4413 50.1139 51.8217 50.3747 53.1053C50.5994 54.5451 51.8416 58.7354 51.0772 58.933C50.4264 58.933 48.9194 56.9521 48.2854 56.1566C47.6036 55.2346 46.4272 53.8129 45.5684 52.4157C45.194 51.6319 45.4729 50.7912 45.3179 49.9919C45.1475 49.0854 44.6129 48.5805 43.9117 48.6089C43.811 48.6115 43.6483 48.6231 43.6715 48.5004C43.7425 48.2396 43.9013 47.9929 43.9943 47.7347C44.5276 46.4963 45.2262 43.8736 43.5398 43.5095C43.4274 43.4875 43.2234 43.4604 43.217 43.339C43.6754 42.1846 44.1648 40.0953 42.7146 39.8292C42.5235 39.7595 42.4693 39.5761 42.4654 39.3747C42.5635 34.7208 38.9776 35.1883 36.1057 36.6978C33.6122 37.8548 31.4905 38.7471 28.8898 39.908C27.7987 40.3793 26.5616 40.9062 25.4381 41.1244C24.7447 41.2303 23.9105 41.3207 23.7801 40.6634C23.7478 40.2993 24.1404 39.8602 24.1055 39.4703C24.0874 39.1552 23.8227 38.8698 23.5037 38.8608C21.4647 39.2443 14.4632 42.5513 14.3664 39.4406C14.3367 38.7988 15.1709 38.5302 15.4498 37.9749C15.8437 36.7469 14.0449 37.2337 13.2933 37.2931C10.6267 37.4881 5.22775 38.1996 4.53303 35.0927C4.36645 34.3954 5.3246 33.7846 6.36928 33.7097C6.53069 33.7187 6.77862 33.6671 6.87031 33.782C7.08725 35.8843 10.495 33.516 11.3525 32.9736C11.4984 32.8858 11.4235 33.1273 11.3964 33.2113C10.5854 36.2794 15.5634 33.2435 17.0278 31.9548C17.6089 31.4951 16.0025 33.2461 17.4785 33.4437C18.8718 33.6477 21.7295 31.9832 23.128 30.8094C23.2016 30.7487 23.2945 30.7306 23.3372 30.8197C23.8046 33.609 28.0505 31.61 30.0946 29.8086C30.2367 29.7324 30.2651 29.9843 30.2883 30.0992C30.7674 32.5759 35.3696 29.7389 36.249 28.7846C36.3162 28.711 36.3433 28.6929 36.3394 28.7769C36.1083 30.2658 37.7108 31.0302 39.7627 29.4135C40.3128 28.9822 40.7389 28.516 41.1741 27.9672C41.2387 27.8872 41.3058 27.8187 41.3833 27.8497C41.4608 27.8923 41.4956 27.984 41.537 28.0654C42.0935 29.3037 42.8877 29.2895 43.5721 28.4734C44.4218 27.5669 45.0338 25.0114 44.9809 23.343C44.9809 21.8877 44.9835 18.6646 44.9848 17.1447C44.9654 16.8012 45.2417 16.6747 45.5529 16.9407C46.0462 17.3255 46.4633 17.895 46.7461 18.4464C47.6294 20.0708 47.9664 21.4319 48.4158 23.4037C48.5462 24.1036 48.9181 24.7531 49.5263 25.1315C49.8556 25.3433 50.2301 25.4737 50.6433 25.5137C60.6316 26.0845 67.5182 26.9238 77.1036 29.1953C77.1191 29.203 77.1437 29.2082 77.1011 29.2185C77.0572 29.2237 77.0494 29.2224 77.0132 29.225C76.1687 29.225 75.2609 29.3541 75.1228 29.8887L75.1189 29.9068V29.9029Z" fill="#0F2E43"/>
</svg>
