<svg width="23" height="23" viewBox="0 0 23 23" fill="none" xmlns="http://www.w3.org/2000/svg">
<path d="M21.6201 12.3031C21.4408 14.244 20.7124 16.0936 19.5202 17.6356C18.328 19.1776 16.7213 20.3481 14.8881 21.0103C13.0549 21.6725 11.071 21.7988 9.16862 21.3747C7.26622 20.9505 5.52398 19.9933 4.14574 18.615C2.76751 17.2368 1.81029 15.4945 1.3861 13.5921C0.961914 11.6897 1.08829 9.70588 1.75046 7.87268C2.41262 6.03949 3.58317 4.43279 5.12516 3.24059C6.66714 2.04838 8.51677 1.31998 10.4576 1.14062C9.32131 2.67791 8.77451 4.57199 8.91667 6.47836C9.05884 8.38473 9.88052 10.1767 11.2323 11.5285C12.584 12.8802 14.376 13.7019 16.2824 13.8441C18.1888 13.9863 20.0828 13.4395 21.6201 12.3031Z" stroke="#F6FBFF" stroke-width="2.28039" stroke-linecap="round" stroke-linejoin="round"/>
</svg>
