<svg width="24" height="24" viewBox="0 0 24 24" fill="none" xmlns="http://www.w3.org/2000/svg">
<path d="M16.9991 2H19.6691C20.235 1.98999 20.785 2.18813 21.2145 2.55681C21.644 2.9255 21.9232 3.43905 21.9991 4V11C21.9232 11.5609 21.644 12.0745 21.2145 12.4432C20.785 12.8119 20.235 13.01 19.6691 13H16.9991M9.99905 15V19C9.99905 19.7956 10.3151 20.5587 10.8777 21.1213C11.4403 21.6839 12.2034 22 12.9991 22L16.9991 13V2H5.71905C5.23673 1.99454 4.76868 2.16359 4.40115 2.47599C4.03362 2.78839 3.79138 3.22309 3.71905 3.7L2.33905 12.7C2.29555 12.9866 2.31488 13.2793 2.39571 13.5577C2.47655 13.8362 2.61695 14.0937 2.8072 14.3125C2.99744 14.5313 3.23297 14.7061 3.49748 14.8248C3.76199 14.9435 4.04915 15.0033 4.33905 15H9.99905Z" stroke="#181D27" stroke-width="2" stroke-linecap="round" stroke-linejoin="round"/>
</svg>
